STARTFONT 2.1
FONT -Adobe-New Century Schoolbook-Medium-I-Normal--17-120-100-100-P-92-ISO10646-1
SIZE 12 100 100
FONTBOUNDINGBOX 23 27 -4 -7
COMMENT $XFree86$
COMMENT ISO10646-1 extension by Markus Kuhn <mkuhn@acm.org>, 2001-03-20
COMMENT 
COMMENT +
COMMENT  Copyright 1984-1989, 1994 Adobe Systems Incorporated.
COMMENT  Copyright 1988, 1994 Digital Equipment Corporation.
COMMENT
COMMENT  Adobe is a trademark of Adobe Systems Incorporated which may be
COMMENT  registered in certain jurisdictions.
COMMENT  Permission to use these trademarks is hereby granted only in
COMMENT  association with the images described in this file.
COMMENT
COMMENT  Permission to use, copy, modify, distribute and sell this software
COMMENT  and its documentation for any purpose and without fee is hereby
COMMENT  granted, provided that the above copyright notices appear in all
COMMENT  copies and that both those copyright notices and this permission
COMMENT  notice appear in supporting documentation, and that the names of
COMMENT  Adobe Systems and Digital Equipment Corporation not be used in
COMMENT  advertising or publicity pertaining to distribution of the software
COMMENT  without specific, written prior permission.  Adobe Systems and
COMMENT  Digital Equipment Corporation make no representations about the
COMMENT  suitability of this software for any purpose.  It is provided "as
COMMENT  is" without express or implied warranty.
COMMENT -
STARTPROPERTIES 26
FOUNDRY "Adobe"
FAMILY_NAME "New Century Schoolbook"
WEIGHT_NAME "Medium"
SLANT "I"
SETWIDTH_NAME "Normal"
ADD_STYLE_NAME ""
PIXEL_SIZE 17
POINT_SIZE 120
RESOLUTION_X 100
RESOLUTION_Y 100
SPACING "P"
AVERAGE_WIDTH 92
CHARSET_REGISTRY "ISO10646"
CHARSET_ENCODING "1"
CAP_HEIGHT 12
X_HEIGHT 8
FONT_ASCENT 14
FONT_DESCENT 3
FACE_NAME "New Century Schoolbook Italic"
COPYRIGHT "Copyright (c) 1984, 1987 Adobe Systems Incorporated. All Rights Reserved. Copyright (c) 1988, 1991 Digital Equipment Corporation. All Rights Reserved."

STARTCHAR char0
ENCODING 0
SWIDTH 833 0
DWIDTH 14 0
BBX 15 11 -1 0
BITMAP
AAAA
0000
8002
0000
8002
0000
8002
0000
8002
0000
AAAA
ENDCHAR
STARTCHAR space
ENCODING 32
SWIDTH 278 0
DWIDTH 4 0
BBX 1 1 1 0
BITMAP
00
ENDCHAR
STARTCHAR exclam
ENCODING 33
SWIDTH 333 0
DWIDTH 6 0
BBX 5 12 0 0
BITMAP
18
18
10
30
30
20
20
40
40
00
C0
C0
ENDCHAR
STARTCHAR quotedbl
ENCODING 34
SWIDTH 400 0
DWIDTH 7 0
BBX 5 4 1 8
BITMAP
48
48
90
90
ENDCHAR
STARTCHAR numbersign
ENCODING 35
SWIDTH 606 0
DWIDTH 9 0
BBX 8 12 0 0
BITMAP
12
12
12
12
FF
24
24
FF
48
48
48
48
ENDCHAR
STARTCHAR dollar
ENCODING 36
SWIDTH 556 0
DWIDTH 9 0
BBX 9 15 0 -1
BITMAP
0200
0200
1F00
2480
4580
6980
3800
1C00
0E00
CB00
D100
9200
7C00
2000
2000
ENDCHAR
STARTCHAR percent
ENCODING 37
SWIDTH 833 0
DWIDTH 14 0
BBX 12 12 1 0
BITMAP
3880
6780
4500
C500
8A00
8AE0
7590
0510
0B10
0A20
1220
11C0
ENDCHAR
STARTCHAR ampersand
ENCODING 38
SWIDTH 852 0
DWIDTH 14 0
BBX 13 12 0 0
BITMAP
0380
0440
0C40
0C80
0F00
1C78
6630
C620
C640
C388
6390
3CE0
ENDCHAR
STARTCHAR quotesingle
ENCODING 39
SWIDTH 278 0
DWIDTH 5 0
BBX 2 4 2 8
BITMAP
40
40
80
80
ENDCHAR
STARTCHAR parenleft
ENCODING 40
SWIDTH 333 0
DWIDTH 6 0
BBX 5 14 1 -2
BITMAP
08
10
20
20
40
40
80
80
80
80
80
80
40
40
ENDCHAR
STARTCHAR parenright
ENCODING 41
SWIDTH 333 0
DWIDTH 5 0
BBX 5 14 -1 -2
BITMAP
10
10
08
08
08
08
08
08
10
10
20
20
40
80
ENDCHAR
STARTCHAR asterisk
ENCODING 42
SWIDTH 500 0
DWIDTH 8 0
BBX 7 7 0 5
BITMAP
10
54
D6
38
D6
54
10
ENDCHAR
STARTCHAR plus
ENCODING 43
SWIDTH 606 0
DWIDTH 10 0
BBX 9 9 0 0
BITMAP
0800
0800
0800
0800
FF80
0800
0800
0800
0800
ENDCHAR
STARTCHAR comma
ENCODING 44
SWIDTH 278 0
DWIDTH 4 0
BBX 3 5 -1 -3
BITMAP
60
60
20
40
80
ENDCHAR
STARTCHAR hyphen
ENCODING 45
SWIDTH 333 0
DWIDTH 5 0
BBX 3 1 1 3
BITMAP
E0
ENDCHAR
STARTCHAR period
ENCODING 46
SWIDTH 278 0
DWIDTH 4 0
BBX 2 2 0 0
BITMAP
C0
C0
ENDCHAR
STARTCHAR slash
ENCODING 47
SWIDTH 606 0
DWIDTH 10 0
BBX 6 14 2 -2
BITMAP
04
04
08
08
08
10
10
20
20
40
40
40
80
80
ENDCHAR
STARTCHAR zero
ENCODING 48
SWIDTH 556 0
DWIDTH 9 0
BBX 9 12 0 0
BITMAP
0E00
1100
2100
6180
6180
C180
C180
C300
C300
4200
4400
3800
ENDCHAR
STARTCHAR one
ENCODING 49
SWIDTH 556 0
DWIDTH 9 0
BBX 7 12 0 0
BITMAP
02
3E
0C
0C
0C
18
18
18
30
30
30
FC
ENDCHAR
STARTCHAR two
ENCODING 50
SWIDTH 556 0
DWIDTH 9 0
BBX 9 12 -1 0
BITMAP
0E00
1300
2180
3180
3180
0300
0600
0800
1000
2100
7E00
FE00
ENDCHAR
STARTCHAR three
ENCODING 51
SWIDTH 556 0
DWIDTH 9 0
BBX 9 12 0 0
BITMAP
1E00
2300
3180
3100
0300
1C00
0600
0300
C300
C300
8600
7C00
ENDCHAR
STARTCHAR four
ENCODING 52
SWIDTH 556 0
DWIDTH 9 0
BBX 8 12 0 0
BITMAP
01
03
07
0B
12
26
46
84
FF
0C
0C
7F
ENDCHAR
STARTCHAR five
ENCODING 53
SWIDTH 556 0
DWIDTH 9 0
BBX 10 12 0 0
BITMAP
1FC0
1F80
1000
2000
2000
3E00
4700
0300
4300
E200
C600
7800
ENDCHAR
STARTCHAR six
ENCODING 54
SWIDTH 556 0
DWIDTH 9 0
BBX 9 12 0 0
BITMAP
0F00
3180
2180
6000
4C00
D600
E300
C300
C300
C600
4600
3800
ENDCHAR
STARTCHAR seven
ENCODING 55
SWIDTH 556 0
DWIDTH 9 0
BBX 8 12 1 0
BITMAP
7F
7F
82
84
04
08
10
10
30
60
60
60
ENDCHAR
STARTCHAR eight
ENCODING 56
SWIDTH 556 0
DWIDTH 9 0
BBX 9 12 0 0
BITMAP
0F00
1180
2080
2080
3100
1E00
2E00
4300
C100
C100
6200
3C00
ENDCHAR
STARTCHAR nine
ENCODING 57
SWIDTH 556 0
DWIDTH 9 0
BBX 9 12 0 0
BITMAP
0E00
3100
3180
6180
6180
6380
3580
1900
0300
C200
C600
7800
ENDCHAR
STARTCHAR colon
ENCODING 58
SWIDTH 278 0
DWIDTH 5 0
BBX 4 8 0 0
BITMAP
30
30
00
00
00
00
C0
C0
ENDCHAR
STARTCHAR semicolon
ENCODING 59
SWIDTH 278 0
DWIDTH 5 0
BBX 5 11 -1 -3
BITMAP
18
18
00
00
00
00
60
60
20
40
80
ENDCHAR
STARTCHAR less
ENCODING 60
SWIDTH 606 0
DWIDTH 10 0
BBX 9 9 0 0
BITMAP
0180
0600
1800
6000
8000
6000
1800
0600
0180
ENDCHAR
STARTCHAR equal
ENCODING 61
SWIDTH 606 0
DWIDTH 10 0
BBX 8 4 1 2
BITMAP
FF
00
00
FF
ENDCHAR
STARTCHAR greater
ENCODING 62
SWIDTH 606 0
DWIDTH 10 0
BBX 9 9 0 0
BITMAP
C000
3000
0C00
0300
0080
0300
0C00
3000
C000
ENDCHAR
STARTCHAR question
ENCODING 63
SWIDTH 444 0
DWIDTH 7 0
BBX 5 12 1 0
BITMAP
70
88
88
98
30
60
C0
90
60
00
C0
C0
ENDCHAR
STARTCHAR at
ENCODING 64
SWIDTH 747 0
DWIDTH 12 0
BBX 12 12 0 0
BITMAP
0700
18C0
2020
46E0
4D90
9890
99A0
9120
9B40
4C90
6060
1F80
ENDCHAR
STARTCHAR A
ENCODING 65
SWIDTH 704 0
DWIDTH 12 0
BBX 13 12 -2 0
BITMAP
0080
0180
0180
02C0
04C0
04C0
08C0
0FC0
1060
2060
2060
F9F8
ENDCHAR
STARTCHAR B
ENCODING 66
SWIDTH 722 0
DWIDTH 12 0
BBX 11 12 -1 0
BITMAP
3FC0
0C60
0C20
1860
1840
1F80
18C0
1860
3060
3060
30C0
FF80
ENDCHAR
STARTCHAR C
ENCODING 67
SWIDTH 722 0
DWIDTH 12 0
BBX 11 12 0 0
BITMAP
07A0
18E0
3040
6040
6040
C000
C000
C000
C040
C080
6180
3E00
ENDCHAR
STARTCHAR D
ENCODING 68
SWIDTH 778 0
DWIDTH 13 0
BBX 13 12 -1 0
BITMAP
3FC0
0C30
0C10
0C18
1818
1818
1818
1830
3030
3060
30C0
FF00
ENDCHAR
STARTCHAR E
ENCODING 69
SWIDTH 722 0
DWIDTH 12 0
BBX 13 12 -1 0
BITMAP
3FF8
0C18
0C10
0C90
1980
1F80
1900
1900
3010
3030
3060
FFE0
ENDCHAR
STARTCHAR F
ENCODING 70
SWIDTH 667 0
DWIDTH 11 0
BBX 13 12 -1 0
BITMAP
3FF8
0C18
0C10
0C90
1980
1F80
1900
1900
3000
3000
3000
FC00
ENDCHAR
STARTCHAR G
ENCODING 71
SWIDTH 778 0
DWIDTH 13 0
BBX 12 12 0 0
BITMAP
07D0
1870
3020
6020
6020
C000
C3F0
C0C0
C0C0
C180
6180
3E80
ENDCHAR
STARTCHAR H
ENCODING 72
SWIDTH 833 0
DWIDTH 14 0
BBX 15 12 -1 0
BITMAP
3F7E
0C18
0C18
0C18
1830
1FF0
1830
1830
3060
3060
3060
FDF8
ENDCHAR
STARTCHAR I
ENCODING 73
SWIDTH 407 0
DWIDTH 7 0
BBX 8 12 -1 0
BITMAP
3F
0C
0C
0C
18
18
18
18
30
30
30
FC
ENDCHAR
STARTCHAR J
ENCODING 74
SWIDTH 611 0
DWIDTH 10 0
BBX 11 12 -1 0
BITMAP
07E0
0180
0180
0180
0300
0300
0300
6300
E600
C600
8400
7800
ENDCHAR
STARTCHAR K
ENCODING 75
SWIDTH 741 0
DWIDTH 12 0
BBX 15 12 -1 0
BITMAP
3FBE
0C18
0C20
0C40
1880
1B80
1D80
1980
30C0
30C0
3060
FDF8
ENDCHAR
STARTCHAR L
ENCODING 76
SWIDTH 667 0
DWIDTH 11 0
BBX 11 12 -1 0
BITMAP
3F00
0C00
0C00
0C00
1800
1800
1800
1820
3060
3040
31C0
FFC0
ENDCHAR
STARTCHAR M
ENCODING 77
SWIDTH 944 0
DWIDTH 16 0
BBX 17 12 -1 0
BITMAP
3E0780
0E0E00
0E1600
0E1600
162C00
164C00
134C00
138C00
231800
231800
221800
FA7E00
ENDCHAR
STARTCHAR N
ENCODING 78
SWIDTH 815 0
DWIDTH 13 0
BBX 15 12 -1 0
BITMAP
3C3E
0E08
0E08
0B08
0B10
1190
1190
10D0
20E0
2060
2060
F820
ENDCHAR
STARTCHAR O
ENCODING 79
SWIDTH 778 0
DWIDTH 13 0
BBX 12 12 0 0
BITMAP
07C0
1860
3030
6030
6030
C030
C030
C060
C060
C0C0
6180
3E00
ENDCHAR
STARTCHAR P
ENCODING 80
SWIDTH 667 0
DWIDTH 11 0
BBX 12 12 -1 0
BITMAP
3FE0
0C70
0C30
0C30
1860
18E0
1F80
1800
3000
3000
3000
FC00
ENDCHAR
STARTCHAR Q
ENCODING 81
SWIDTH 778 0
DWIDTH 13 0
BBX 12 15 0 -3
BITMAP
07C0
1860
3030
6030
6030
C030
C030
CE60
D360
E3C0
6380
3F00
0320
03C0
0180
ENDCHAR
STARTCHAR R
ENCODING 82
SWIDTH 741 0
DWIDTH 13 0
BBX 13 12 -1 0
BITMAP
3FF0
0C38
0C18
0C18
1870
1FC0
18C0
1860
3060
30C8
30C8
FC70
ENDCHAR
STARTCHAR S
ENCODING 83
SWIDTH 667 0
DWIDTH 11 0
BBX 11 12 -1 0
BITMAP
0F20
18E0
3040
3040
3840
1F00
0780
41C0
40C0
40C0
E180
9E00
ENDCHAR
STARTCHAR T
ENCODING 84
SWIDTH 685 0
DWIDTH 11 0
BBX 12 12 0 0
BITMAP
7FF0
6670
C620
8620
8C20
0C00
0C00
0C00
1800
1800
1800
7E00
ENDCHAR
STARTCHAR U
ENCODING 85
SWIDTH 815 0
DWIDTH 13 0
BBX 13 12 1 0
BITMAP
FCF8
3020
3020
3020
6040
6040
6040
C080
C080
C080
4100
3E00
ENDCHAR
STARTCHAR V
ENCODING 86
SWIDTH 704 0
DWIDTH 11 0
BBX 13 12 -1 0
BITMAP
FCF8
3020
3020
3040
1840
1880
1900
1900
0E00
0C00
0C00
0800
ENDCHAR
STARTCHAR W
ENCODING 87
SWIDTH 926 0
DWIDTH 15 0
BBX 17 12 0 0
BITMAP
FBEF80
318600
318400
318400
318800
1AC800
1AD000
1CD000
1CE000
18E000
084000
084000
ENDCHAR
STARTCHAR X
ENCODING 88
SWIDTH 704 0
DWIDTH 12 0
BBX 14 12 -1 0
BITMAP
3F7C
0C30
0C20
0640
0680
0300
0300
0580
0980
10C0
30C0
FBF0
ENDCHAR
STARTCHAR Y
ENCODING 89
SWIDTH 685 0
DWIDTH 11 0
BBX 13 12 0 0
BITMAP
F8F8
3060
3040
1880
1900
1A00
0C00
0C00
0C00
1800
1800
7E00
ENDCHAR
STARTCHAR Z
ENCODING 90
SWIDTH 667 0
DWIDTH 11 0
BBX 11 12 0 0
BITMAP
3FE0
30C0
6180
4300
0300
0600
0C00
1800
1840
30C0
6180
FF80
ENDCHAR
STARTCHAR bracketleft
ENCODING 91
SWIDTH 333 0
DWIDTH 6 0
BBX 7 14 -1 -2
BITMAP
0E
08
08
10
10
10
20
20
20
20
40
40
40
F0
ENDCHAR
STARTCHAR backslash
ENCODING 92
SWIDTH 606 0
DWIDTH 10 0
BBX 8 12 1 0
BITMAP
80
40
40
20
10
10
08
08
04
02
02
01
ENDCHAR
STARTCHAR bracketright
ENCODING 93
SWIDTH 333 0
DWIDTH 6 0
BBX 7 14 -1 -2
BITMAP
1E
04
04
04
08
08
08
08
10
10
10
20
20
E0
ENDCHAR
STARTCHAR asciicircum
ENCODING 94
SWIDTH 606 0
DWIDTH 10 0
BBX 8 7 1 5
BITMAP
18
18
24
24
42
42
81
ENDCHAR
STARTCHAR underscore
ENCODING 95
SWIDTH 500 0
DWIDTH 8 0
BBX 8 1 -1 -3
BITMAP
FF
ENDCHAR
STARTCHAR grave
ENCODING 96
SWIDTH 333 0
DWIDTH 5 0
BBX 3 3 1 9
BITMAP
80
40
20
ENDCHAR
STARTCHAR a
ENCODING 97
SWIDTH 574 0
DWIDTH 10 0
BBX 9 8 0 0
BITMAP
1B00
2600
6600
C600
CC00
CC80
CD00
7600
ENDCHAR
STARTCHAR b
ENCODING 98
SWIDTH 556 0
DWIDTH 9 0
BBX 7 12 0 0
BITMAP
70
30
30
60
7C
6E
C6
C6
C6
84
D8
70
ENDCHAR
STARTCHAR c
ENCODING 99
SWIDTH 444 0
DWIDTH 8 0
BBX 7 8 0 0
BITMAP
3C
66
CE
C0
C0
84
C8
70
ENDCHAR
STARTCHAR d
ENCODING 100
SWIDTH 611 0
DWIDTH 10 0
BBX 9 12 0 0
BITMAP
0380
0180
0100
0300
3B00
6600
C600
C600
C600
8C80
CD00
7600
ENDCHAR
STARTCHAR e
ENCODING 101
SWIDTH 444 0
DWIDTH 7 0
BBX 6 8 0 0
BITMAP
38
6C
CC
D8
F0
80
C8
70
ENDCHAR
STARTCHAR f
ENCODING 102
SWIDTH 333 0
DWIDTH 5 0
BBX 9 15 -2 -3
BITMAP
0380
0480
0D80
0C00
3E00
1800
1800
1000
3000
3000
2000
6000
6000
4000
C000
ENDCHAR
STARTCHAR g
ENCODING 103
SWIDTH 537 0
DWIDTH 9 0
BBX 10 12 -2 -3
BITMAP
00C0
0F40
1980
3180
3180
1300
3E00
6000
3E00
C300
C300
7E00
ENDCHAR
STARTCHAR h
ENCODING 104
SWIDTH 611 0
DWIDTH 10 0
BBX 9 12 0 0
BITMAP
7000
3000
3000
6000
6C00
7600
6600
C600
CC00
CC80
8900
8600
ENDCHAR
STARTCHAR i
ENCODING 105
SWIDTH 333 0
DWIDTH 6 0
BBX 5 12 0 0
BITMAP
30
30
00
00
E0
60
60
C0
C0
C8
D0
60
ENDCHAR
STARTCHAR j
ENCODING 106
SWIDTH 315 0
DWIDTH 5 0
BBX 8 15 -4 -3
BITMAP
03
03
00
00
0E
06
06
06
04
0C
0C
0C
D8
98
60
ENDCHAR
STARTCHAR k
ENCODING 107
SWIDTH 556 0
DWIDTH 9 0
BBX 8 12 0 0
BITMAP
70
30
30
20
6C
76
66
6C
58
D9
CA
8C
ENDCHAR
STARTCHAR l
ENCODING 108
SWIDTH 333 0
DWIDTH 6 0
BBX 5 12 0 0
BITMAP
70
30
30
60
60
60
40
C0
C0
C8
D0
60
ENDCHAR
STARTCHAR m
ENCODING 109
SWIDTH 889 0
DWIDTH 15 0
BBX 12 8 1 0
BITMAP
EDC0
3660
6660
6660
CCC0
CCC0
8890
9860
ENDCHAR
STARTCHAR n
ENCODING 110
SWIDTH 611 0
DWIDTH 10 0
BBX 8 8 0 0
BITMAP
EC
76
66
66
CC
CC
89
86
ENDCHAR
STARTCHAR o
ENCODING 111
SWIDTH 500 0
DWIDTH 8 0
BBX 7 8 -1 0
BITMAP
3C
66
C6
C2
86
C6
CC
78
ENDCHAR
STARTCHAR p
ENCODING 112
SWIDTH 574 0
DWIDTH 9 0
BBX 11 11 -4 -3
BITMAP
1DC0
0E60
0C60
0C60
18E0
18C0
1980
3700
3000
6000
F000
ENDCHAR
STARTCHAR q
ENCODING 113
SWIDTH 556 0
DWIDTH 9 0
BBX 9 11 -1 -3
BITMAP
1C80
6700
6300
C300
C600
C600
CC00
7C00
0800
1800
3C00
ENDCHAR
STARTCHAR r
ENCODING 114
SWIDTH 444 0
DWIDTH 7 0
BBX 7 8 -1 0
BITMAP
DC
66
6E
60
60
C0
C0
C0
ENDCHAR
STARTCHAR s
ENCODING 115
SWIDTH 444 0
DWIDTH 7 0
BBX 6 8 -1 0
BITMAP
38
6C
44
70
38
88
D8
70
ENDCHAR
STARTCHAR t
ENCODING 116
SWIDTH 352 0
DWIDTH 6 0
BBX 6 11 -1 0
BITMAP
0C
18
18
7C
30
30
60
60
C8
D0
60
ENDCHAR
STARTCHAR u
ENCODING 117
SWIDTH 611 0
DWIDTH 10 0
BBX 9 8 0 0
BITMAP
E300
6300
6600
C600
CC00
CC80
9900
6E00
ENDCHAR
STARTCHAR v
ENCODING 118
SWIDTH 519 0
DWIDTH 8 0
BBX 7 8 -1 0
BITMAP
F6
62
66
66
44
4C
68
30
ENDCHAR
STARTCHAR w
ENCODING 119
SWIDTH 778 0
DWIDTH 13 0
BBX 12 8 -1 0
BITMAP
F330
3310
6330
6630
6630
4620
6B40
3180
ENDCHAR
STARTCHAR x
ENCODING 120
SWIDTH 500 0
DWIDTH 8 0
BBX 9 8 -1 0
BITMAP
3380
7680
5C00
0800
1C00
3400
E700
C600
ENDCHAR
STARTCHAR y
ENCODING 121
SWIDTH 500 0
DWIDTH 8 0
BBX 10 11 -3 -3
BITMAP
10C0
38C0
5980
0D80
0D00
0700
0600
0600
CC00
C800
7000
ENDCHAR
STARTCHAR z
ENCODING 122
SWIDTH 463 0
DWIDTH 8 0
BBX 8 8 -1 0
BITMAP
39
6E
0C
18
30
62
F6
9C
ENDCHAR
STARTCHAR braceleft
ENCODING 123
SWIDTH 333 0
DWIDTH 6 0
BBX 6 14 0 -2
BITMAP
0C
10
10
10
20
20
C0
20
20
40
40
40
40
60
ENDCHAR
STARTCHAR bar
ENCODING 124
SWIDTH 606 0
DWIDTH 10 0
BBX 1 12 4 0
BITMAP
80
80
80
80
80
80
80
80
80
80
80
80
ENDCHAR
STARTCHAR braceright
ENCODING 125
SWIDTH 333 0
DWIDTH 6 0
BBX 6 14 -1 -2
BITMAP
18
08
08
08
10
10
0C
10
10
10
20
20
20
C0
ENDCHAR
STARTCHAR asciitilde
ENCODING 126
SWIDTH 606 0
DWIDTH 10 0
BBX 8 2 0 3
BITMAP
71
8E
ENDCHAR
STARTCHAR space
ENCODING 160
SWIDTH 278 0
DWIDTH 4 0
BBX 1 1 1 0
BITMAP
00
ENDCHAR
STARTCHAR exclamdown
ENCODING 161
SWIDTH 333 0
DWIDTH 6 0
BBX 5 12 -1 -3
BITMAP
18
18
00
10
10
20
20
60
60
40
C0
C0
ENDCHAR
STARTCHAR cent
ENCODING 162
SWIDTH 556 0
DWIDTH 9 0
BBX 7 12 0 -2
BITMAP
02
02
3C
66
4E
C8
D0
D4
A8
70
40
40
ENDCHAR
STARTCHAR sterling
ENCODING 163
SWIDTH 556 0
DWIDTH 9 0
BBX 9 12 -1 0
BITMAP
0700
0880
1980
1980
1800
1800
7E00
1800
1000
7880
AF00
4600
ENDCHAR
STARTCHAR currency
ENCODING 164
SWIDTH 606 0
DWIDTH 9 0
BBX 8 8 0 2
BITMAP
BD
66
C3
81
81
C3
66
BD
ENDCHAR
STARTCHAR yen
ENCODING 165
SWIDTH 556 0
DWIDTH 9 0
BBX 9 12 1 0
BITMAP
F780
6300
2200
3400
3400
1800
7E00
1000
FC00
2000
2000
F800
ENDCHAR
STARTCHAR brokenbar
ENCODING 166
SWIDTH 606 0
DWIDTH 10 0
BBX 1 12 4 0
BITMAP
80
80
80
80
80
00
00
80
80
80
80
80
ENDCHAR
STARTCHAR section
ENCODING 167
SWIDTH 500 0
DWIDTH 8 0
BBX 8 15 -1 -3
BITMAP
0E
11
13
10
18
2C
46
42
62
34
18
08
C8
88
70
ENDCHAR
STARTCHAR dieresis
ENCODING 168
SWIDTH 333 0
DWIDTH 6 0
BBX 5 2 1 9
BITMAP
D8
D8
ENDCHAR
STARTCHAR copyright
ENCODING 169
SWIDTH 747 0
DWIDTH 12 0
BBX 12 12 0 0
BITMAP
1F80
30C0
4F20
D930
9110
9010
9010
9110
DB30
4E20
30C0
1F80
ENDCHAR
STARTCHAR ordfeminine
ENCODING 170
SWIDTH 422 0
DWIDTH 7 0
BBX 6 7 1 5
BITMAP
38
48
D8
94
68
00
F8
ENDCHAR
STARTCHAR guillemotleft
ENCODING 171
SWIDTH 426 0
DWIDTH 7 0
BBX 6 5 0 1
BITMAP
24
48
D8
48
48
ENDCHAR
STARTCHAR logicalnot
ENCODING 172
SWIDTH 606 0
DWIDTH 10 0
BBX 8 5 0 1
BITMAP
FF
01
01
01
01
ENDCHAR
STARTCHAR hyphen
ENCODING 173
SWIDTH 333 0
DWIDTH 5 0
BBX 3 1 1 3
BITMAP
E0
ENDCHAR
STARTCHAR registered
ENCODING 174
SWIDTH 747 0
DWIDTH 12 0
BBX 12 12 0 0
BITMAP
1F80
30C0
5E20
C930
8910
8E10
8B10
8910
C9B0
5CE0
30C0
1F80
ENDCHAR
STARTCHAR macron
ENCODING 175
SWIDTH 333 0
DWIDTH 5 0
BBX 5 1 1 9
BITMAP
F8
ENDCHAR
STARTCHAR degree
ENCODING 176
SWIDTH 400 0
DWIDTH 7 0
BBX 5 5 1 7
BITMAP
70
88
88
88
70
ENDCHAR
STARTCHAR plusminus
ENCODING 177
SWIDTH 606 0
DWIDTH 10 0
BBX 9 9 0 0
BITMAP
0800
0800
0800
FF80
0800
0800
0800
0000
FF80
ENDCHAR
STARTCHAR twosuperior
ENCODING 178
SWIDTH 333 0
DWIDTH 6 0
BBX 6 7 0 5
BITMAP
38
6C
64
08
30
64
F8
ENDCHAR
STARTCHAR threesuperior
ENCODING 179
SWIDTH 333 0
DWIDTH 6 0
BBX 6 7 0 5
BITMAP
38
2C
04
18
C8
98
70
ENDCHAR
STARTCHAR acute
ENCODING 180
SWIDTH 333 0
DWIDTH 5 0
BBX 4 3 1 9
BITMAP
30
60
80
ENDCHAR
STARTCHAR mu
ENCODING 181
SWIDTH 611 0
DWIDTH 10 0
BBX 10 11 -1 -3
BITMAP
7300
3300
3300
6600
6600
6640
4C80
7700
C000
C000
8000
ENDCHAR
STARTCHAR paragraph
ENCODING 182
SWIDTH 650 0
DWIDTH 11 0
BBX 9 12 2 0
BITMAP
3F80
6900
CA00
CA00
D200
7400
1400
1400
2400
2800
2800
FC00
ENDCHAR
STARTCHAR periodcentered
ENCODING 183
SWIDTH 278 0
DWIDTH 5 0
BBX 2 2 1 3
BITMAP
C0
C0
ENDCHAR
STARTCHAR cedilla
ENCODING 184
SWIDTH 333 0
DWIDTH 5 0
BBX 3 4 0 -3
BITMAP
40
C0
20
C0
ENDCHAR
STARTCHAR onesuperior
ENCODING 185
SWIDTH 333 0
DWIDTH 6 0
BBX 5 7 0 5
BITMAP
10
70
10
30
20
20
F8
ENDCHAR
STARTCHAR ordmasculine
ENCODING 186
SWIDTH 372 0
DWIDTH 6 0
BBX 5 7 1 5
BITMAP
30
58
88
D0
60
00
F0
ENDCHAR
STARTCHAR guillemotright
ENCODING 187
SWIDTH 426 0
DWIDTH 7 0
BBX 6 5 -1 1
BITMAP
48
48
6C
48
90
ENDCHAR
STARTCHAR onequarter
ENCODING 188
SWIDTH 834 0
DWIDTH 14 0
BBX 12 12 0 0
BITMAP
10C0
7080
1100
3300
2210
2430
FC50
0CB0
0920
13F0
3040
20E0
ENDCHAR
STARTCHAR onehalf
ENCODING 189
SWIDTH 834 0
DWIDTH 14 0
BBX 12 12 0 0
BITMAP
10C0
7080
1100
3300
2200
24E0
FD30
0D90
0820
10C0
3190
23E0
ENDCHAR
STARTCHAR threequarters
ENCODING 190
SWIDTH 834 0
DWIDTH 14 0
BBX 13 12 0 0
BITMAP
3840
2C40
0480
1900
C908
9A18
7228
0458
0490
09F8
1020
1070
ENDCHAR
STARTCHAR questiondown
ENCODING 191
SWIDTH 444 0
DWIDTH 7 0
BBX 5 12 -1 -3
BITMAP
18
18
00
30
48
18
30
60
C8
88
88
70
ENDCHAR
STARTCHAR Agrave
ENCODING 192
SWIDTH 704 0
DWIDTH 12 0
BBX 13 16 -1 0
BITMAP
0300
0180
0040
0000
0080
0180
0180
02C0
04C0
04C0
08C0
0FC0
1060
2060
2060
F9F8
ENDCHAR
STARTCHAR Aacute
ENCODING 193
SWIDTH 704 0
DWIDTH 12 0
BBX 13 16 -1 0
BITMAP
0030
0060
0080
0000
0080
0180
0180
02C0
04C0
04C0
08C0
0FC0
1060
2060
2060
F9F8
ENDCHAR
STARTCHAR Acircumflex
ENCODING 194
SWIDTH 704 0
DWIDTH 12 0
BBX 13 16 -1 0
BITMAP
0080
01C0
0220
0000
0080
0180
0180
02C0
04C0
04C0
08C0
0FC0
1060
2060
2060
F9F8
ENDCHAR
STARTCHAR Atilde
ENCODING 195
SWIDTH 704 0
DWIDTH 12 0
BBX 13 15 -1 0
BITMAP
01D0
02E0
0000
0080
0180
0180
02C0
04C0
04C0
08C0
0FC0
1060
2060
2060
F9F8
ENDCHAR
STARTCHAR Adieresis
ENCODING 196
SWIDTH 704 0
DWIDTH 12 0
BBX 13 15 -1 0
BITMAP
0220
0220
0000
0080
0180
0180
02C0
04C0
04C0
08C0
0FC0
1060
2060
2060
F9F8
ENDCHAR
STARTCHAR Aring
ENCODING 197
SWIDTH 704 0
DWIDTH 12 0
BBX 13 16 -1 0
BITMAP
00C0
0120
00C0
0000
0080
0180
0180
02C0
04C0
04C0
08C0
0FC0
1060
2060
2060
F9F8
ENDCHAR
STARTCHAR AE
ENCODING 198
SWIDTH 870 0
DWIDTH 14 0
BBX 15 12 -1 0
BITMAP
07FE
01C6
02C4
04D4
0590
09F0
11A0
3F20
2304
430C
8318
E7F8
ENDCHAR
STARTCHAR Ccedilla
ENCODING 199
SWIDTH 722 0
DWIDTH 12 0
BBX 11 15 0 -3
BITMAP
07A0
18E0
3040
6040
6040
C000
C000
C000
C040
C080
6180
3E00
1800
0400
1800
ENDCHAR
STARTCHAR Egrave
ENCODING 200
SWIDTH 722 0
DWIDTH 12 0
BBX 13 16 -1 0
BITMAP
0600
0300
0080
0000
3FF8
0C18
0C10
0C90
1980
1F80
1900
1900
3010
3030
3060
FFE0
ENDCHAR
STARTCHAR Eacute
ENCODING 201
SWIDTH 722 0
DWIDTH 12 0
BBX 13 16 -1 0
BITMAP
0060
00C0
0100
0000
3FF8
0C18
0C10
0C90
1980
1F80
1900
1900
3010
3030
3060
FFE0
ENDCHAR
STARTCHAR Ecircumflex
ENCODING 202
SWIDTH 722 0
DWIDTH 12 0
BBX 13 16 -1 0
BITMAP
0080
01C0
0220
0000
3FF8
0C18
0C10
0C90
1980
1F80
1900
1900
3010
3030
3060
FFE0
ENDCHAR
STARTCHAR Edieresis
ENCODING 203
SWIDTH 722 0
DWIDTH 12 0
BBX 13 15 -1 0
BITMAP
0220
0220
0000
3FF8
0C18
0C10
0C90
1980
1F80
1900
1900
3010
3030
3060
FFE0
ENDCHAR
STARTCHAR Igrave
ENCODING 204
SWIDTH 407 0
DWIDTH 7 0
BBX 8 16 -1 0
BITMAP
18
0C
02
00
3F
0C
0C
0C
18
18
18
18
30
30
30
FC
ENDCHAR
STARTCHAR Iacute
ENCODING 205
SWIDTH 407 0
DWIDTH 7 0
BBX 9 16 -1 0
BITMAP
0180
0300
0400
0000
3F00
0C00
0C00
0C00
1800
1800
1800
1800
3000
3000
3000
FC00
ENDCHAR
STARTCHAR Icircumflex
ENCODING 206
SWIDTH 407 0
DWIDTH 7 0
BBX 8 16 -1 0
BITMAP
04
0E
11
00
3F
0C
0C
0C
18
18
18
18
30
30
30
FC
ENDCHAR
STARTCHAR Idieresis
ENCODING 207
SWIDTH 407 0
DWIDTH 7 0
BBX 8 15 -1 0
BITMAP
11
11
00
3F
0C
0C
0C
18
18
18
18
30
30
30
FC
ENDCHAR
STARTCHAR Eth
ENCODING 208
SWIDTH 778 0
DWIDTH 13 0
BBX 13 12 -1 0
BITMAP
3FC0
0C30
0C10
1818
1818
7E18
1818
1830
3030
3060
30C0
FF00
ENDCHAR
STARTCHAR Ntilde
ENCODING 209
SWIDTH 815 0
DWIDTH 13 0
BBX 15 15 -1 0
BITMAP
01D0
02E0
0000
3C3E
0E08
0E08
0B08
0B10
1190
1190
10D0
20E0
2060
2060
F820
ENDCHAR
STARTCHAR Ograve
ENCODING 210
SWIDTH 778 0
DWIDTH 13 0
BBX 12 16 0 0
BITMAP
0C00
0600
0100
0000
07C0
1860
3030
6030
6030
C030
C030
C060
C060
C0C0
6180
3E00
ENDCHAR
STARTCHAR Oacute
ENCODING 211
SWIDTH 778 0
DWIDTH 13 0
BBX 12 16 0 0
BITMAP
0060
00C0
0100
0000
07C0
1860
3030
6030
6030
C030
C030
C060
C060
C0C0
6180
3E00
ENDCHAR
STARTCHAR Ocircumflex
ENCODING 212
SWIDTH 778 0
DWIDTH 13 0
BBX 12 16 0 0
BITMAP
0100
0380
0440
0000
07C0
1860
3030
6030
6030
C030
C030
C060
C060
C0C0
6180
3E00
ENDCHAR
STARTCHAR Otilde
ENCODING 213
SWIDTH 778 0
DWIDTH 13 0
BBX 12 15 0 0
BITMAP
03A0
05C0
0000
07C0
1860
3030
6030
6030
C030
C030
C060
C060
C0C0
6180
3E00
ENDCHAR
STARTCHAR Odieresis
ENCODING 214
SWIDTH 778 0
DWIDTH 13 0
BBX 12 15 0 0
BITMAP
0440
0440
0000
07C0
1860
3030
6030
6030
C030
C030
C060
C060
C0C0
6180
3E00
ENDCHAR
STARTCHAR multiply
ENCODING 215
SWIDTH 606 0
DWIDTH 10 0
BBX 8 8 1 0
BITMAP
81
42
24
18
18
24
42
81
ENDCHAR
STARTCHAR Oslash
ENCODING 216
SWIDTH 778 0
DWIDTH 13 0
BBX 12 14 0 -1
BITMAP
0010
07E0
1860
30B0
6130
6130
C230
C430
C860
C860
D0C0
6180
7E00
8000
ENDCHAR
STARTCHAR Ugrave
ENCODING 217
SWIDTH 815 0
DWIDTH 13 0
BBX 13 16 1 0
BITMAP
0C00
0600
0100
0000
FCF8
3020
3020
3020
6040
6040
6040
C080
C080
C080
4100
3E00
ENDCHAR
STARTCHAR Uacute
ENCODING 218
SWIDTH 815 0
DWIDTH 13 0
BBX 13 16 1 0
BITMAP
0060
00C0
0100
0000
FCF8
3020
3020
3020
6040
6040
6040
C080
C080
C080
4100
3E00
ENDCHAR
STARTCHAR Ucircumflex
ENCODING 219
SWIDTH 815 0
DWIDTH 13 0
BBX 13 16 1 0
BITMAP
0100
0380
0440
0000
FCF8
3020
3020
3020
6040
6040
6040
C080
C080
C080
4100
3E00
ENDCHAR
STARTCHAR Udieresis
ENCODING 220
SWIDTH 815 0
DWIDTH 13 0
BBX 13 15 1 0
BITMAP
0440
0440
0000
FCF8
3020
3020
3020
6040
6040
6040
C080
C080
C080
4100
3E00
ENDCHAR
STARTCHAR Yacute
ENCODING 221
SWIDTH 685 0
DWIDTH 11 0
BBX 13 16 0 0
BITMAP
00C0
0180
0200
0000
F8F8
3060
3040
1880
1900
1A00
0C00
0C00
0C00
1800
1800
7E00
ENDCHAR
STARTCHAR Thorn
ENCODING 222
SWIDTH 667 0
DWIDTH 11 0
BBX 12 12 -1 0
BITMAP
3F00
0C00
0FE0
0C70
0C30
1830
1860
18E0
3F80
3000
3000
FC00
ENDCHAR
STARTCHAR germandbls
ENCODING 223
SWIDTH 556 0
DWIDTH 9 0
BBX 10 15 -2 -3
BITMAP
0780
0CC0
18C0
18C0
1980
3300
3180
3180
3180
6D80
6B00
6600
6000
4000
8000
ENDCHAR
STARTCHAR agrave
ENCODING 224
SWIDTH 574 0
DWIDTH 10 0
BBX 8 12 0 0
BITMAP
30
18
04
00
3B
66
C6
C6
CC
CD
CD
76
ENDCHAR
STARTCHAR aacute
ENCODING 225
SWIDTH 574 0
DWIDTH 10 0
BBX 8 12 0 0
BITMAP
03
06
08
00
3B
66
C6
C6
CC
CD
CD
76
ENDCHAR
STARTCHAR acircumflex
ENCODING 226
SWIDTH 574 0
DWIDTH 10 0
BBX 8 12 0 0
BITMAP
08
1C
22
00
3B
66
C6
C6
CC
CD
CD
76
ENDCHAR
STARTCHAR atilde
ENCODING 227
SWIDTH 574 0
DWIDTH 10 0
BBX 8 11 0 0
BITMAP
1D
2E
00
1B
66
C6
C6
CC
CD
CD
76
ENDCHAR
STARTCHAR adieresis
ENCODING 228
SWIDTH 574 0
DWIDTH 10 0
BBX 8 11 0 0
BITMAP
12
12
00
3B
66
C6
C6
CC
CD
CD
76
ENDCHAR
STARTCHAR aring
ENCODING 229
SWIDTH 574 0
DWIDTH 10 0
BBX 8 13 0 0
BITMAP
0C
12
12
0C
00
1B
66
C6
C6
CC
CD
CD
76
ENDCHAR
STARTCHAR ae
ENCODING 230
SWIDTH 722 0
DWIDTH 12 0
BBX 12 8 -1 0
BITMAP
3CE0
67B0
6710
1E30
77E0
C600
CF60
71C0
ENDCHAR
STARTCHAR ccedilla
ENCODING 231
SWIDTH 444 0
DWIDTH 8 0
BBX 7 11 0 -3
BITMAP
3C
66
CE
C0
C0
84
C8
70
20
10
60
ENDCHAR
STARTCHAR egrave
ENCODING 232
SWIDTH 444 0
DWIDTH 7 0
BBX 6 12 0 0
BITMAP
60
30
08
00
38
6C
CC
D8
F0
80
C8
70
ENDCHAR
STARTCHAR eacute
ENCODING 233
SWIDTH 444 0
DWIDTH 7 0
BBX 7 12 0 0
BITMAP
06
0C
10
00
38
6C
CC
D8
F0
80
C8
70
ENDCHAR
STARTCHAR ecircumflex
ENCODING 234
SWIDTH 444 0
DWIDTH 7 0
BBX 6 12 0 0
BITMAP
10
38
44
00
38
6C
CC
D8
F0
80
C8
70
ENDCHAR
STARTCHAR edieresis
ENCODING 235
SWIDTH 444 0
DWIDTH 7 0
BBX 6 11 0 0
BITMAP
24
24
00
38
6C
CC
D8
F0
80
C8
70
ENDCHAR
STARTCHAR igrave
ENCODING 236
SWIDTH 333 0
DWIDTH 6 0
BBX 5 12 0 0
BITMAP
C0
60
10
00
E0
60
60
60
C0
C8
D0
60
ENDCHAR
STARTCHAR iacute
ENCODING 237
SWIDTH 333 0
DWIDTH 6 0
BBX 5 12 0 0
BITMAP
18
30
40
00
E0
60
60
60
C0
C8
D0
60
ENDCHAR
STARTCHAR icircumflex
ENCODING 238
SWIDTH 333 0
DWIDTH 6 0
BBX 5 12 0 0
BITMAP
20
70
88
00
E0
60
60
60
C0
C8
D0
60
ENDCHAR
STARTCHAR idieresis
ENCODING 239
SWIDTH 333 0
DWIDTH 6 0
BBX 5 11 0 0
BITMAP
88
88
00
E0
60
60
60
C0
C8
D0
60
ENDCHAR
STARTCHAR eth
ENCODING 240
SWIDTH 500 0
DWIDTH 8 0
BBX 7 13 -1 0
BITMAP
E0
36
18
6C
0C
3E
66
C6
C2
86
C6
CC
78
ENDCHAR
STARTCHAR ntilde
ENCODING 241
SWIDTH 611 0
DWIDTH 10 0
BBX 9 11 0 0
BITMAP
1D00
2E00
0000
EC00
7600
6600
6600
CC00
CC80
8900
8600
ENDCHAR
STARTCHAR ograve
ENCODING 242
SWIDTH 500 0
DWIDTH 8 0
BBX 7 12 -1 0
BITMAP
60
30
08
00
3C
66
C6
C2
86
C6
CC
78
ENDCHAR
STARTCHAR oacute
ENCODING 243
SWIDTH 500 0
DWIDTH 8 0
BBX 8 12 -1 0
BITMAP
03
06
08
00
3C
66
C6
C2
86
C6
CC
78
ENDCHAR
STARTCHAR ocircumflex
ENCODING 244
SWIDTH 500 0
DWIDTH 8 0
BBX 7 12 -1 0
BITMAP
08
1C
22
00
3C
66
C6
C2
86
C6
CC
78
ENDCHAR
STARTCHAR otilde
ENCODING 245
SWIDTH 500 0
DWIDTH 8 0
BBX 8 11 -1 0
BITMAP
1D
2E
00
3C
66
C6
C2
86
C6
CC
78
ENDCHAR
STARTCHAR odieresis
ENCODING 246
SWIDTH 500 0
DWIDTH 8 0
BBX 7 11 -1 0
BITMAP
12
12
00
3C
66
C6
C2
86
C6
CC
78
ENDCHAR
STARTCHAR divide
ENCODING 247
SWIDTH 606 0
DWIDTH 10 0
BBX 8 7 1 1
BITMAP
18
18
00
FF
00
18
18
ENDCHAR
STARTCHAR oslash
ENCODING 248
SWIDTH 500 0
DWIDTH 8 0
BBX 7 12 -1 -2
BITMAP
02
02
3C
6E
CA
D2
96
A6
EC
78
80
80
ENDCHAR
STARTCHAR ugrave
ENCODING 249
SWIDTH 611 0
DWIDTH 10 0
BBX 9 12 0 0
BITMAP
6000
3000
0800
0000
E600
6600
6600
CC00
CC00
CC80
9900
6E00
ENDCHAR
STARTCHAR uacute
ENCODING 250
SWIDTH 611 0
DWIDTH 10 0
BBX 9 12 0 0
BITMAP
0300
0600
0800
0000
E600
6600
6600
CC00
CC00
CC80
9900
6E00
ENDCHAR
STARTCHAR ucircumflex
ENCODING 251
SWIDTH 611 0
DWIDTH 10 0
BBX 9 12 0 0
BITMAP
0800
1C00
2200
0000
E600
6600
6600
CC00
CC00
CC80
9900
6E00
ENDCHAR
STARTCHAR udieresis
ENCODING 252
SWIDTH 611 0
DWIDTH 10 0
BBX 9 11 0 0
BITMAP
2200
2200
0000
E600
6600
6600
CC00
CC00
CC80
D900
6E00
ENDCHAR
STARTCHAR yacute
ENCODING 253
SWIDTH 500 0
DWIDTH 8 0
BBX 10 15 -3 -3
BITMAP
0180
0300
0400
0000
10C0
38C0
5980
0D80
0F00
0600
0600
0400
CC00
8800
7000
ENDCHAR
STARTCHAR thorn
ENCODING 254
SWIDTH 574 0
DWIDTH 9 0
BBX 11 14 -4 -3
BITMAP
0E00
0600
0600
05C0
0E60
0C60
0C60
18E0
18C0
1980
3700
3000
6000
F000
ENDCHAR
STARTCHAR ydieresis
ENCODING 255
SWIDTH 500 0
DWIDTH 8 0
BBX 10 14 -3 -3
BITMAP
0900
0900
0000
10C0
38C0
5980
0D80
0F00
0600
0600
0400
CC00
8800
7000
ENDCHAR
STARTCHAR Amacron
ENCODING 256
SWIDTH 704 0
DWIDTH 12 0
BBX 13 14 -2 0
BITMAP
07C0
0000
0080
0180
0180
02C0
04C0
04C0
08C0
0FC0
1060
2060
2060
F9F8
ENDCHAR
STARTCHAR amacron
ENCODING 257
SWIDTH 574 0
DWIDTH 10 0
BBX 9 10 0 0
BITMAP
3E00
0000
1B00
2600
6600
C600
CC00
CC80
CD00
7600
ENDCHAR
STARTCHAR Abreve
ENCODING 258
SWIDTH 704 0
DWIDTH 12 0
BBX 13 16 -2 0
BITMAP
0440
0440
0380
0000
0080
0180
0180
02C0
04C0
04C0
08C0
0FC0
1060
2060
2060
F9F8
ENDCHAR
STARTCHAR abreve
ENCODING 259
SWIDTH 574 0
DWIDTH 10 0
BBX 9 12 0 0
BITMAP
2200
2200
1C00
0000
1B00
2600
6600
C600
CC00
CC80
CD00
7600
ENDCHAR
STARTCHAR Aogonek
ENCODING 260
SWIDTH 704 0
DWIDTH 12 0
BBX 13 15 -2 -3
BITMAP
0080
0180
0180
02C0
04C0
04C0
08C0
0FC0
1060
2060
2060
F9F8
0200
0400
0700
ENDCHAR
STARTCHAR aogonek
ENCODING 261
SWIDTH 574 0
DWIDTH 10 0
BBX 9 11 0 -3
BITMAP
1B00
2600
6600
C600
CC00
CC80
CD00
7600
0800
1000
1C00
ENDCHAR
STARTCHAR Cacute
ENCODING 262
SWIDTH 722 0
DWIDTH 12 0
BBX 11 16 0 0
BITMAP
0180
0300
0400
0000
07A0
18E0
3040
6040
6040
C000
C000
C000
C040
C080
6180
3E00
ENDCHAR
STARTCHAR cacute
ENCODING 263
SWIDTH 444 0
DWIDTH 8 0
BBX 7 12 0 0
BITMAP
06
0C
10
00
3C
66
CE
C0
C0
84
C8
70
ENDCHAR
STARTCHAR Ccircumflex
ENCODING 264
SWIDTH 722 0
DWIDTH 12 0
BBX 11 16 0 0
BITMAP
0200
0500
0880
0000
07A0
18E0
3040
6040
6040
C000
C000
C000
C040
C080
6180
3E00
ENDCHAR
STARTCHAR ccircumflex
ENCODING 265
SWIDTH 444 0
DWIDTH 8 0
BBX 7 12 0 0
BITMAP
10
28
44
00
3C
66
CE
C0
C0
84
C8
70
ENDCHAR
STARTCHAR Cdotaccent
ENCODING 266
SWIDTH 722 0
DWIDTH 12 0
BBX 11 15 0 0
BITMAP
0600
0600
0000
07A0
18E0
3040
6040
6040
C000
C000
C000
C040
C080
6180
3E00
ENDCHAR
STARTCHAR cdotaccent
ENCODING 267
SWIDTH 444 0
DWIDTH 8 0
BBX 7 11 0 0
BITMAP
18
18
00
3C
66
CE
C0
C0
84
C8
70
ENDCHAR
STARTCHAR Ccaron
ENCODING 268
SWIDTH 722 0
DWIDTH 12 0
BBX 11 16 0 0
BITMAP
0880
0500
0200
0000
07A0
18E0
3040
6040
6040
C000
C000
C000
C040
C080
6180
3E00
ENDCHAR
STARTCHAR ccaron
ENCODING 269
SWIDTH 444 0
DWIDTH 8 0
BBX 7 12 0 0
BITMAP
44
28
10
00
3C
66
CE
C0
C0
84
C8
70
ENDCHAR
STARTCHAR Dcaron
ENCODING 270
SWIDTH 778 0
DWIDTH 13 0
BBX 13 16 -1 0
BITMAP
0880
0500
0200
0000
3FC0
0C30
0C10
0C18
1818
1818
1818
1830
3030
3060
30C0
FF00
ENDCHAR
STARTCHAR dcaron
ENCODING 271
SWIDTH 784 0
DWIDTH 13 0
BBX 13 12 0 0
BITMAP
0398
0198
0108
0310
3B20
6600
C600
C600
C600
8C80
CD00
7600
ENDCHAR
STARTCHAR Dcroat
ENCODING 272
SWIDTH 778 0
DWIDTH 13 0
BBX 13 12 -1 0
BITMAP
3FC0
0C30
0C10
1818
1818
7E18
1818
1830
3030
3060
30C0
FF00
ENDCHAR
STARTCHAR dcroat
ENCODING 273
SWIDTH 611 0
DWIDTH 10 0
BBX 10 12 0 0
BITMAP
0380
0180
3FC0
0300
3B00
6600
C600
C600
C600
8C80
CD00
7600
ENDCHAR
STARTCHAR Emacron
ENCODING 274
SWIDTH 722 0
DWIDTH 12 0
BBX 13 14 -1 0
BITMAP
07C0
0000
3FF8
0C18
0C10
0C90
1980
1F80
1900
1900
3010
3030
3060
FFE0
ENDCHAR
STARTCHAR emacron
ENCODING 275
SWIDTH 444 0
DWIDTH 7 0
BBX 6 10 0 0
BITMAP
7C
00
38
6C
CC
D8
F0
80
C8
70
ENDCHAR
STARTCHAR Ebreve
ENCODING 276
SWIDTH 722 0
DWIDTH 12 0
BBX 13 16 -1 0
BITMAP
0440
0440
0380
0000
3FF8
0C18
0C10
0C90
1980
1F80
1900
1900
3010
3030
3060
FFE0
ENDCHAR
STARTCHAR ebreve
ENCODING 277
SWIDTH 444 0
DWIDTH 7 0
BBX 6 12 0 0
BITMAP
44
44
38
00
38
6C
CC
D8
F0
80
C8
70
ENDCHAR
STARTCHAR Edotaccent
ENCODING 278
SWIDTH 722 0
DWIDTH 12 0
BBX 13 15 -1 0
BITMAP
0300
0300
0000
3FF8
0C18
0C10
0C90
1980
1F80
1900
1900
3010
3030
3060
FFE0
ENDCHAR
STARTCHAR edotaccent
ENCODING 279
SWIDTH 444 0
DWIDTH 7 0
BBX 6 11 0 0
BITMAP
30
30
00
38
6C
CC
D8
F0
80
C8
70
ENDCHAR
STARTCHAR Eogonek
ENCODING 280
SWIDTH 722 0
DWIDTH 12 0
BBX 13 15 -1 -3
BITMAP
3FF8
0C18
0C10
0C90
1980
1F80
1900
1900
3010
3030
3060
FFE0
0200
0400
0700
ENDCHAR
STARTCHAR eogonek
ENCODING 281
SWIDTH 444 0
DWIDTH 7 0
BBX 6 11 0 -3
BITMAP
38
6C
CC
D8
F0
80
C8
70
20
40
70
ENDCHAR
STARTCHAR Ecaron
ENCODING 282
SWIDTH 722 0
DWIDTH 12 0
BBX 13 16 -1 0
BITMAP
0440
0280
0100
0000
3FF8
0C18
0C10
0C90
1980
1F80
1900
1900
3010
3030
3060
FFE0
ENDCHAR
STARTCHAR ecaron
ENCODING 283
SWIDTH 444 0
DWIDTH 7 0
BBX 6 12 0 0
BITMAP
44
28
10
00
38
6C
CC
D8
F0
80
C8
70
ENDCHAR
STARTCHAR Gcircumflex
ENCODING 284
SWIDTH 778 0
DWIDTH 13 0
BBX 12 16 0 0
BITMAP
0200
0500
0880
0000
07D0
1870
3020
6020
6020
C000
C3F0
C0C0
C0C0
C180
6180
3E80
ENDCHAR
STARTCHAR gcircumflex
ENCODING 285
SWIDTH 537 0
DWIDTH 9 0
BBX 10 16 -2 -3
BITMAP
0200
0500
0880
0000
00C0
0F40
1980
3180
3180
1300
3E00
6000
3E00
C300
C300
7E00
ENDCHAR
STARTCHAR Gbreve
ENCODING 286
SWIDTH 778 0
DWIDTH 13 0
BBX 12 16 0 0
BITMAP
0880
0880
0700
0000
07D0
1870
3020
6020
6020
C000
C3F0
C0C0
C0C0
C180
6180
3E80
ENDCHAR
STARTCHAR gbreve
ENCODING 287
SWIDTH 537 0
DWIDTH 9 0
BBX 10 16 -2 -3
BITMAP
0880
0880
0700
0000
00C0
0F40
1980
3180
3180
1300
3E00
6000
3E00
C300
C300
7E00
ENDCHAR
STARTCHAR Gdotaccent
ENCODING 288
SWIDTH 778 0
DWIDTH 13 0
BBX 12 15 0 0
BITMAP
0300
0300
0000
07D0
1870
3020
6020
6020
C000
C3F0
C0C0
C0C0
C180
6180
3E80
ENDCHAR
STARTCHAR gdotaccent
ENCODING 289
SWIDTH 537 0
DWIDTH 9 0
BBX 10 15 -2 -3
BITMAP
0600
0600
0000
00C0
0F40
1980
3180
3180
1300
3E00
6000
3E00
C300
C300
7E00
ENDCHAR
STARTCHAR Gcommaaccent
ENCODING 290
SWIDTH 778 0
DWIDTH 13 0
BBX 12 18 0 -6
BITMAP
07D0
1870
3020
6020
6020
C000
C3F0
C0C0
C0C0
C180
6180
3E80
0000
0C00
0C00
0400
0800
1000
ENDCHAR
STARTCHAR gcommaaccent
ENCODING 291
SWIDTH 537 0
DWIDTH 9 0
BBX 10 18 -2 -3
BITMAP
0100
0200
0400
0600
0600
0000
00C0
0F40
1980
3180
3180
1300
3E00
6000
3E00
C300
C300
7E00
ENDCHAR
STARTCHAR Hcircumflex
ENCODING 292
SWIDTH 833 0
DWIDTH 14 0
BBX 15 16 -1 0
BITMAP
0080
0140
0220
0000
3F7E
0C18
0C18
0C18
1830
1FF0
1830
1830
3060
3060
3060
FDF8
ENDCHAR
STARTCHAR hcircumflex
ENCODING 293
SWIDTH 611 0
DWIDTH 10 0
BBX 9 16 0 0
BITMAP
1000
2800
4400
0000
7000
3000
3000
6000
6C00
7600
6600
C600
CC00
CC80
8900
8600
ENDCHAR
STARTCHAR Hbar
ENCODING 294
SWIDTH 833 0
DWIDTH 14 0
BBX 15 12 -1 0
BITMAP
3F7E
0C18
0C18
FFFE
1830
1FF0
1830
1830
3060
3060
3060
FDF8
ENDCHAR
STARTCHAR hbar
ENCODING 295
SWIDTH 611 0
DWIDTH 10 0
BBX 11 12 -2 0
BITMAP
1C00
0C00
FF00
1800
1B00
1D80
1980
3180
3300
3320
2240
2180
ENDCHAR
STARTCHAR Itilde
ENCODING 296
SWIDTH 407 0
DWIDTH 7 0
BBX 8 15 -1 0
BITMAP
19
26
00
3F
0C
0C
0C
18
18
18
18
30
30
30
FC
ENDCHAR
STARTCHAR itilde
ENCODING 297
SWIDTH 333 0
DWIDTH 6 0
BBX 6 11 -1 0
BITMAP
64
98
00
70
10
30
20
20
64
48
30
ENDCHAR
STARTCHAR Imacron
ENCODING 298
SWIDTH 407 0
DWIDTH 7 0
BBX 8 14 -1 0
BITMAP
3E
00
3F
0C
0C
0C
18
18
18
18
30
30
30
FC
ENDCHAR
STARTCHAR imacron
ENCODING 299
SWIDTH 333 0
DWIDTH 6 0
BBX 5 10 0 0
BITMAP
F8
00
E0
20
60
40
40
C8
90
60
ENDCHAR
STARTCHAR Ibreve
ENCODING 300
SWIDTH 407 0
DWIDTH 7 0
BBX 8 16 -1 0
BITMAP
22
22
1C
00
3F
0C
0C
0C
18
18
18
18
30
30
30
FC
ENDCHAR
STARTCHAR ibreve
ENCODING 301
SWIDTH 333 0
DWIDTH 6 0
BBX 5 12 0 0
BITMAP
88
88
70
00
E0
20
60
40
40
C8
90
60
ENDCHAR
STARTCHAR Iogonek
ENCODING 302
SWIDTH 407 0
DWIDTH 7 0
BBX 8 15 -1 -3
BITMAP
3F
0C
0C
0C
18
18
18
18
30
30
30
FC
10
20
38
ENDCHAR
STARTCHAR iogonek
ENCODING 303
SWIDTH 333 0
DWIDTH 6 0
BBX 5 15 0 -3
BITMAP
30
30
00
00
E0
60
60
C0
C0
C8
D0
60
20
40
70
ENDCHAR
STARTCHAR Idotaccent
ENCODING 304
SWIDTH 407 0
DWIDTH 7 0
BBX 8 15 -1 0
BITMAP
0C
0C
00
3F
0C
0C
0C
18
18
18
18
30
30
30
FC
ENDCHAR
STARTCHAR dotlessi
ENCODING 305
SWIDTH 333 0
DWIDTH 6 0
BBX 5 8 0 0
BITMAP
E0
20
60
40
40
C8
90
60
ENDCHAR
STARTCHAR IJ
ENCODING 306
SWIDTH 998 0
DWIDTH 17 0
BBX 18 12 -1 0
BITMAP
3F0FC0
0C0300
0C0300
0C0300
180600
180600
180600
18C600
31CC00
318C00
310800
FCF000
ENDCHAR
STARTCHAR ij
ENCODING 307
SWIDTH 631 0
DWIDTH 11 0
BBX 10 15 0 -3
BITMAP
30C0
30C0
0000
0000
E380
6180
6180
C180
C100
CB00
D300
6300
3600
2600
1800
ENDCHAR
STARTCHAR Jcircumflex
ENCODING 308
SWIDTH 611 0
DWIDTH 10 0
BBX 11 16 -1 0
BITMAP
0100
0280
0440
0000
07E0
0180
0180
0180
0300
0300
0300
6300
E600
C600
8400
7800
ENDCHAR
STARTCHAR jcircumflex
ENCODING 309
SWIDTH 315 0
DWIDTH 5 0
BBX 8 15 -4 -3
BITMAP
04
0A
11
00
0E
06
06
06
04
0C
0C
0C
D8
98
60
ENDCHAR
STARTCHAR Kcommaaccent
ENCODING 310
SWIDTH 741 0
DWIDTH 12 0
BBX 15 18 -1 -6
BITMAP
3FBE
0C18
0C20
0C40
1880
1B80
1D80
1980
30C0
30C0
3060
FDF8
0000
0300
0300
0100
0200
0400
ENDCHAR
STARTCHAR kcommaaccent
ENCODING 311
SWIDTH 556 0
DWIDTH 9 0
BBX 8 18 0 -6
BITMAP
70
30
30
20
6C
76
66
6C
58
D9
CA
8C
00
18
18
08
10
20
ENDCHAR
STARTCHAR kgreenlandic
ENCODING 312
SWIDTH 556 0
DWIDTH 9 0
BBX 8 8 0 0
BITMAP
6C
76
66
6C
58
D9
CA
8C
ENDCHAR
STARTCHAR Lacute
ENCODING 313
SWIDTH 667 0
DWIDTH 11 0
BBX 11 16 -1 0
BITMAP
0300
0600
0800
0000
3F00
0C00
0C00
0C00
1800
1800
1800
1820
3060
3040
31C0
FFC0
ENDCHAR
STARTCHAR lacute
ENCODING 314
SWIDTH 333 0
DWIDTH 6 0
BBX 6 16 0 0
BITMAP
0C
18
20
00
70
30
30
60
60
60
40
C0
C0
C8
D0
60
ENDCHAR
STARTCHAR Lcommaaccent
ENCODING 315
SWIDTH 667 0
DWIDTH 11 0
BBX 11 18 -1 -6
BITMAP
3F00
0C00
0C00
0C00
1800
1800
1800
1820
3060
3040
31C0
FFC0
0000
0600
0600
0200
0400
0800
ENDCHAR
STARTCHAR lcommaaccent
ENCODING 316
SWIDTH 333 0
DWIDTH 6 0
BBX 5 18 0 -6
BITMAP
70
30
30
60
60
60
40
C0
C0
C8
D0
60
00
60
60
20
40
80
ENDCHAR
STARTCHAR Lcaron
ENCODING 317
SWIDTH 838 0
DWIDTH 13 0
BBX 14 12 -1 0
BITMAP
3F0C
0C0C
0C04
0C08
1810
1800
1800
1820
3060
3040
31C0
FFC0
ENDCHAR
STARTCHAR lcaron
ENCODING 318
SWIDTH 520 0
DWIDTH 9 0
BBX 9 12 0 0
BITMAP
7180
3180
3080
6100
6200
6000
4000
C000
C000
C800
D000
6000
ENDCHAR
STARTCHAR Ldot
ENCODING 319
SWIDTH 912 0
DWIDTH 15 0
BBX 14 12 -1 0
BITMAP
3F00
0C00
0C00
0C00
1800
1800
1800
182C
306C
3040
31C0
FFC0
ENDCHAR
STARTCHAR ldot
ENCODING 320
SWIDTH 594 0
DWIDTH 11 0
BBX 9 12 0 0
BITMAP
7000
3000
3000
6000
6000
6000
4000
C180
C180
C800
D000
6000
ENDCHAR
STARTCHAR Lslash
ENCODING 321
SWIDTH 667 0
DWIDTH 11 0
BBX 11 12 -1 0
BITMAP
1F00
0C00
0C00
0C80
0F00
1800
7800
9820
3060
3040
31C0
FFC0
ENDCHAR
STARTCHAR lslash
ENCODING 322
SWIDTH 333 0
DWIDTH 6 0
BBX 6 12 0 0
BITMAP
38
08
18
10
3C
E0
20
60
40
C8
90
60
ENDCHAR
STARTCHAR Nacute
ENCODING 323
SWIDTH 815 0
DWIDTH 13 0
BBX 15 16 -1 0
BITMAP
0060
00C0
0100
0000
3C3E
0E08
0E08
0B08
0B10
1190
1190
10D0
20E0
2060
2060
F820
ENDCHAR
STARTCHAR nacute
ENCODING 324
SWIDTH 611 0
DWIDTH 10 0
BBX 8 12 0 0
BITMAP
06
0C
10
00
EC
76
66
66
CC
CC
89
86
ENDCHAR
STARTCHAR Ncommaaccent
ENCODING 325
SWIDTH 815 0
DWIDTH 13 0
BBX 15 18 -1 -6
BITMAP
3C3E
0E08
0E08
0B08
0B10
1190
1190
10D0
20E0
2060
2060
F820
0000
0300
0300
0100
0200
0400
ENDCHAR
STARTCHAR ncommaaccent
ENCODING 326
SWIDTH 611 0
DWIDTH 10 0
BBX 8 14 0 -6
BITMAP
EC
76
66
66
CC
CC
89
86
00
18
18
08
10
20
ENDCHAR
STARTCHAR Ncaron
ENCODING 327
SWIDTH 815 0
DWIDTH 13 0
BBX 15 16 -1 0
BITMAP
0440
0280
0100
0000
3C3E
0E08
0E08
0B08
0B10
1190
1190
10D0
20E0
2060
2060
F820
ENDCHAR
STARTCHAR ncaron
ENCODING 328
SWIDTH 611 0
DWIDTH 10 0
BBX 8 12 0 0
BITMAP
44
28
10
00
EC
76
66
66
CC
CC
89
86
ENDCHAR
STARTCHAR napostrophe
ENCODING 329
SWIDTH 805 0
DWIDTH 13 0
BBX 11 12 0 0
BITMAP
6000
6000
2000
4000
9D80
0EC0
0CC0
0CC0
1980
1980
1120
10C0
ENDCHAR
STARTCHAR Eng
ENCODING 330
SWIDTH 815 0
DWIDTH 13 0
BBX 15 15 -1 -3
BITMAP
3C3E
0E08
0E08
0B08
0B10
1190
1190
10D0
20E0
2060
2060
F860
06C0
04C0
0300
ENDCHAR
STARTCHAR eng
ENCODING 331
SWIDTH 611 0
DWIDTH 10 0
BBX 7 11 0 -3
BITMAP
EC
76
66
66
CC
CC
8C
8C
D8
98
60
ENDCHAR
STARTCHAR Omacron
ENCODING 332
SWIDTH 778 0
DWIDTH 13 0
BBX 12 14 0 0
BITMAP
0F80
0000
07C0
1860
3030
6030
6030
C030
C030
C060
C060
C0C0
6180
3E00
ENDCHAR
STARTCHAR omacron
ENCODING 333
SWIDTH 500 0
DWIDTH 8 0
BBX 7 10 -1 0
BITMAP
7C
00
3C
66
C6
C2
86
C6
CC
78
ENDCHAR
STARTCHAR Obreve
ENCODING 334
SWIDTH 778 0
DWIDTH 13 0
BBX 12 16 0 0
BITMAP
0880
0880
0700
0000
07C0
1860
3030
6030
6030
C030
C030
C060
C060
C0C0
6180
3E00
ENDCHAR
STARTCHAR obreve
ENCODING 335
SWIDTH 500 0
DWIDTH 8 0
BBX 7 12 -1 0
BITMAP
44
44
38
00
3C
66
C6
C2
86
C6
CC
78
ENDCHAR
STARTCHAR Ohungarumlaut
ENCODING 336
SWIDTH 778 0
DWIDTH 13 0
BBX 12 16 0 0
BITMAP
0240
0480
0900
0000
07C0
1860
3030
6030
6030
C030
C030
C060
C060
C0C0
6180
3E00
ENDCHAR
STARTCHAR ohungarumlaut
ENCODING 337
SWIDTH 500 0
DWIDTH 8 0
BBX 7 12 -1 0
BITMAP
12
24
48
00
3C
66
C6
C2
86
C6
CC
78
ENDCHAR
STARTCHAR OE
ENCODING 338
SWIDTH 981 0
DWIDTH 16 0
BBX 15 12 0 0
BITMAP
07FE
18C6
30C4
60D4
6190
C1F0
C1A0
C1A0
C304
C30C
6318
3FF8
ENDCHAR
STARTCHAR oe
ENCODING 339
SWIDTH 778 0
DWIDTH 13 0
BBX 11 8 1 0
BITMAP
1CC0
6320
4220
C660
8780
8400
8C40
7380
ENDCHAR
STARTCHAR Racute
ENCODING 340
SWIDTH 741 0
DWIDTH 13 0
BBX 13 16 -1 0
BITMAP
00C0
0180
0200
0000
3FF0
0C38
0C18
0C18
1870
1FC0
18C0
1860
3060
30C8
30C8
FC70
ENDCHAR
STARTCHAR racute
ENCODING 341
SWIDTH 444 0
DWIDTH 7 0
BBX 7 12 -1 0
BITMAP
06
0C
10
00
DC
66
6E
60
60
C0
C0
C0
ENDCHAR
STARTCHAR Rcommaaccent
ENCODING 342
SWIDTH 741 0
DWIDTH 13 0
BBX 13 18 -1 -6
BITMAP
3FF0
0C38
0C18
0C18
1870
1FC0
18C0
1860
3060
30C8
30C8
FC70
0000
0300
0300
0100
0200
0400
ENDCHAR
STARTCHAR rcommaaccent
ENCODING 343
SWIDTH 444 0
DWIDTH 7 0
BBX 7 14 -1 -6
BITMAP
DC
66
6E
60
60
C0
C0
C0
00
60
60
20
40
80
ENDCHAR
STARTCHAR Rcaron
ENCODING 344
SWIDTH 741 0
DWIDTH 13 0
BBX 13 16 -1 0
BITMAP
0440
0280
0100
0000
3FF0
0C38
0C18
0C18
1870
1FC0
18C0
1860
3060
30C8
30C8
FC70
ENDCHAR
STARTCHAR rcaron
ENCODING 345
SWIDTH 444 0
DWIDTH 7 0
BBX 7 12 -1 0
BITMAP
44
28
10
00
DC
66
6E
60
60
C0
C0
C0
ENDCHAR
STARTCHAR Sacute
ENCODING 346
SWIDTH 667 0
DWIDTH 11 0
BBX 11 16 -1 0
BITMAP
0180
0300
0400
0000
0F20
18E0
3040
3040
3840
1F00
0780
41C0
40C0
40C0
E180
9E00
ENDCHAR
STARTCHAR sacute
ENCODING 347
SWIDTH 444 0
DWIDTH 7 0
BBX 6 12 -1 0
BITMAP
0C
18
20
00
38
6C
44
70
38
88
D8
70
ENDCHAR
STARTCHAR Scircumflex
ENCODING 348
SWIDTH 667 0
DWIDTH 11 0
BBX 11 16 -1 0
BITMAP
0200
0500
0880
0000
0F20
18E0
3040
3040
3840
1F00
0780
41C0
40C0
40C0
E180
9E00
ENDCHAR
STARTCHAR scircumflex
ENCODING 349
SWIDTH 444 0
DWIDTH 7 0
BBX 6 12 -1 0
BITMAP
10
28
44
00
38
6C
44
70
38
88
D8
70
ENDCHAR
STARTCHAR Scedilla
ENCODING 350
SWIDTH 667 0
DWIDTH 11 0
BBX 11 15 -1 -3
BITMAP
0F20
18E0
3040
3040
3840
1F00
0780
41C0
40C0
40C0
E180
9E00
0C00
0200
0C00
ENDCHAR
STARTCHAR scedilla
ENCODING 351
SWIDTH 444 0
DWIDTH 7 0
BBX 6 11 -1 -3
BITMAP
38
6C
44
70
38
88
D8
70
60
10
60
ENDCHAR
STARTCHAR Scaron
ENCODING 352
SWIDTH 667 0
DWIDTH 11 0
BBX 11 13 -1 0
BITMAP
0880
0500
0200
0000
0F20
18C0
3040
3C00
1F80
43C0
40C0
E180
9E00
ENDCHAR
STARTCHAR scaron
ENCODING 353
SWIDTH 444 0
DWIDTH 7 0
BBX 6 12 0 0
BITMAP
44
28
10
00
38
44
4C
60
18
C8
88
70
ENDCHAR
STARTCHAR Tcommaaccent
ENCODING 354
SWIDTH 685 0
DWIDTH 11 0
BBX 12 15 0 -3
BITMAP
7FF0
6670
C620
8620
8C20
0C00
0C00
0C00
1800
1800
1800
7E00
1800
0400
1800
ENDCHAR
STARTCHAR tcommaaccent
ENCODING 355
SWIDTH 352 0
DWIDTH 6 0
BBX 6 14 -1 -3
BITMAP
0C
18
18
7C
30
30
60
60
C8
D0
60
60
10
60
ENDCHAR
STARTCHAR Tcaron
ENCODING 356
SWIDTH 685 0
DWIDTH 11 0
BBX 12 16 0 0
BITMAP
0880
0500
0200
0000
7FF0
6670
C620
8620
8C20
0C00
0C00
0C00
1800
1800
1800
7E00
ENDCHAR
STARTCHAR tcaron
ENCODING 357
SWIDTH 538 0
DWIDTH 9 0
BBX 10 12 -1 0
BITMAP
00C0
0CC0
1840
1880
7D00
3000
3000
6000
6000
C800
D000
6000
ENDCHAR
STARTCHAR Tbar
ENCODING 358
SWIDTH 685 0
DWIDTH 11 0
BBX 12 12 0 0
BITMAP
7FF0
6670
C620
8620
8C20
3FC0
0C00
0C00
1800
1800
1800
7E00
ENDCHAR
STARTCHAR tbar
ENCODING 359
SWIDTH 352 0
DWIDTH 6 0
BBX 8 11 -2 0
BITMAP
06
0C
0C
3E
18
18
FF
30
64
68
30
ENDCHAR
STARTCHAR Utilde
ENCODING 360
SWIDTH 815 0
DWIDTH 13 0
BBX 13 15 1 0
BITMAP
0C80
1300
0000
FCF8
3020
3020
3020
6040
6040
6040
C080
C080
C080
4100
3E00
ENDCHAR
STARTCHAR utilde
ENCODING 361
SWIDTH 611 0
DWIDTH 10 0
BBX 9 11 0 0
BITMAP
3200
4C00
0000
E300
6300
6600
C600
CC00
CC80
9900
6E00
ENDCHAR
STARTCHAR Umacron
ENCODING 362
SWIDTH 815 0
DWIDTH 13 0
BBX 13 14 1 0
BITMAP
0F80
0000
FCF8
3020
3020
3020
6040
6040
6040
C080
C080
C080
4100
3E00
ENDCHAR
STARTCHAR umacron
ENCODING 363
SWIDTH 611 0
DWIDTH 10 0
BBX 9 10 0 0
BITMAP
3E00
0000
E300
6300
6600
C600
CC00
CC80
9900
6E00
ENDCHAR
STARTCHAR Ubreve
ENCODING 364
SWIDTH 815 0
DWIDTH 13 0
BBX 13 16 1 0
BITMAP
0880
0880
0700
0000
FCF8
3020
3020
3020
6040
6040
6040
C080
C080
C080
4100
3E00
ENDCHAR
STARTCHAR ubreve
ENCODING 365
SWIDTH 611 0
DWIDTH 10 0
BBX 9 12 0 0
BITMAP
2200
2200
1C00
0000
E300
6300
6600
C600
CC00
CC80
9900
6E00
ENDCHAR
STARTCHAR Uring
ENCODING 366
SWIDTH 815 0
DWIDTH 13 0
BBX 13 17 1 0
BITMAP
0600
0900
0900
0600
0000
FCF8
3020
3020
3020
6040
6040
6040
C080
C080
C080
4100
3E00
ENDCHAR
STARTCHAR uring
ENCODING 367
SWIDTH 611 0
DWIDTH 10 0
BBX 9 13 0 0
BITMAP
1800
2400
2400
1800
0000
E300
6300
6600
C600
CC00
CC80
9900
6E00
ENDCHAR
STARTCHAR Uhungarumlaut
ENCODING 368
SWIDTH 815 0
DWIDTH 13 0
BBX 13 16 1 0
BITMAP
0240
0480
0900
0000
FCF8
3020
3020
3020
6040
6040
6040
C080
C080
C080
4100
3E00
ENDCHAR
STARTCHAR uhungarumlaut
ENCODING 369
SWIDTH 611 0
DWIDTH 10 0
BBX 9 12 0 0
BITMAP
0900
1200
2400
0000
E300
6300
6600
C600
CC00
CC80
9900
6E00
ENDCHAR
STARTCHAR Uogonek
ENCODING 370
SWIDTH 815 0
DWIDTH 13 0
BBX 13 15 1 -3
BITMAP
FCF8
3020
3020
3020
6040
6040
6040
C080
C080
C080
4100
3E00
0800
1000
1C00
ENDCHAR
STARTCHAR uogonek
ENCODING 371
SWIDTH 611 0
DWIDTH 10 0
BBX 9 11 0 -3
BITMAP
E300
6300
6600
C600
CC00
CC80
9900
6E00
0800
1000
1C00
ENDCHAR
STARTCHAR Wcircumflex
ENCODING 372
SWIDTH 926 0
DWIDTH 15 0
BBX 17 16 0 0
BITMAP
008000
014000
022000
000000
FBEF80
318600
318400
318400
318800
1AC800
1AD000
1CD000
1CE000
18E000
084000
084000
ENDCHAR
STARTCHAR wcircumflex
ENCODING 373
SWIDTH 778 0
DWIDTH 13 0
BBX 12 12 -1 0
BITMAP
0200
0500
0880
0000
F330
3310
6330
6630
6630
4620
6B40
3180
ENDCHAR
STARTCHAR Ycircumflex
ENCODING 374
SWIDTH 685 0
DWIDTH 11 0
BBX 13 16 0 0
BITMAP
0200
0500
0880
0000
F8F8
3060
3040
1880
1900
1A00
0C00
0C00
0C00
1800
1800
7E00
ENDCHAR
STARTCHAR ycircumflex
ENCODING 375
SWIDTH 500 0
DWIDTH 8 0
BBX 10 15 -3 -3
BITMAP
0400
0A00
1100
0000
10C0
38C0
5980
0D80
0D00
0700
0600
0600
CC00
C800
7000
ENDCHAR
STARTCHAR Ydieresis
ENCODING 376
SWIDTH 685 0
DWIDTH 11 0
BBX 12 12 0 0
BITMAP
0D80
0D80
0000
F8F0
3040
3080
1900
1A00
0C00
1800
1800
7E00
ENDCHAR
STARTCHAR Zacute
ENCODING 377
SWIDTH 667 0
DWIDTH 11 0
BBX 11 16 0 0
BITMAP
0180
0300
0400
0000
3FE0
30C0
6180
4300
0300
0600
0C00
1800
1840
30C0
6180
FF80
ENDCHAR
STARTCHAR zacute
ENCODING 378
SWIDTH 463 0
DWIDTH 8 0
BBX 8 12 -1 0
BITMAP
06
0C
10
00
39
6E
0C
18
30
62
F6
9C
ENDCHAR
STARTCHAR Zdotaccent
ENCODING 379
SWIDTH 667 0
DWIDTH 11 0
BBX 11 15 0 0
BITMAP
0600
0600
0000
3FE0
30C0
6180
4300
0300
0600
0C00
1800
1840
30C0
6180
FF80
ENDCHAR
STARTCHAR zdotaccent
ENCODING 380
SWIDTH 463 0
DWIDTH 8 0
BBX 8 11 -1 0
BITMAP
18
18
00
39
6E
0C
18
30
62
F6
9C
ENDCHAR
STARTCHAR Zcaron
ENCODING 381
SWIDTH 667 0
DWIDTH 11 0
BBX 10 13 0 0
BITMAP
0880
0500
0200
0000
3FC0
3180
6300
4600
0C00
1840
30C0
6180
FF80
ENDCHAR
STARTCHAR zcaron
ENCODING 382
SWIDTH 463 0
DWIDTH 8 0
BBX 8 12 -1 0
BITMAP
22
14
08
00
39
4E
04
08
30
42
F2
9C
ENDCHAR
STARTCHAR uni0186
ENCODING 390
SWIDTH 722 0
DWIDTH 12 0
BBX 11 12 0 0
BITMAP
0F80
30C0
2060
4060
0060
0060
0060
40C0
40C0
4180
E300
BC00
ENDCHAR
STARTCHAR uni0189
ENCODING 393
SWIDTH 778 0
DWIDTH 13 0
BBX 13 12 -1 0
BITMAP
3FC0
0C30
0C10
1818
1818
7E18
1818
1830
3030
3060
30C0
FF00
ENDCHAR
STARTCHAR uni018E
ENCODING 398
SWIDTH 722 0
DWIDTH 12 0
BBX 13 12 -1 0
BITMAP
3FF8
3060
6060
4060
04C0
04C0
0FC0
0CC0
4980
4180
C180
FFE0
ENDCHAR
STARTCHAR florin
ENCODING 402
SWIDTH 556 0
DWIDTH 9 0
BBX 11 15 -2 -3
BITMAP
00C0
0120
0260
0200
0200
1F80
0400
0400
0400
0C00
0800
0800
C800
9000
6000
ENDCHAR
STARTCHAR uni0197
ENCODING 407
SWIDTH 407 0
DWIDTH 7 0
BBX 8 12 -1 0
BITMAP
3F
0C
0C
0C
18
FF
18
18
30
30
30
FC
ENDCHAR
STARTCHAR uni019A
ENCODING 410
SWIDTH 333 0
DWIDTH 6 0
BBX 8 12 -1 0
BITMAP
38
18
18
30
30
FF
20
60
60
64
68
30
ENDCHAR
STARTCHAR uni019D
ENCODING 413
SWIDTH 815 0
DWIDTH 13 0
BBX 18 15 -4 -3
BITMAP
0787C0
01C100
01C100
016100
016200
023200
023200
021A00
041C00
0C0C00
0C0C00
0C0400
D80000
980000
600000
ENDCHAR
STARTCHAR uni019F
ENCODING 415
SWIDTH 778 0
DWIDTH 13 0
BBX 12 12 0 0
BITMAP
07C0
1860
3030
6030
6030
FFF0
C030
C060
C060
C0C0
6180
3E00
ENDCHAR
STARTCHAR Ohorn
ENCODING 416
SWIDTH 778 0
DWIDTH 13 0
BBX 14 12 0 0
BITMAP
07CC
186C
3034
6038
6030
C030
C030
C060
C060
C0C0
6180
3E00
ENDCHAR
STARTCHAR ohorn
ENCODING 417
SWIDTH 500 0
DWIDTH 8 0
BBX 10 8 -1 0
BITMAP
3CC0
66C0
C640
C280
8700
C600
CC00
7800
ENDCHAR
STARTCHAR Uhorn
ENCODING 431
SWIDTH 815 0
DWIDTH 13 0
BBX 15 12 1 0
BITMAP
FCFE
3026
3022
3024
6048
6040
6040
C080
C080
C080
4100
3E00
ENDCHAR
STARTCHAR uhorn
ENCODING 432
SWIDTH 611 0
DWIDTH 10 0
BBX 11 8 0 0
BITMAP
E360
6360
6620
C640
CC80
CC80
9900
6E00
ENDCHAR
STARTCHAR uni01B5
ENCODING 437
SWIDTH 667 0
DWIDTH 11 0
BBX 11 12 0 0
BITMAP
3FE0
30C0
6180
4300
0300
3FC0
0C00
1800
1840
30C0
6180
FF80
ENDCHAR
STARTCHAR uni01B6
ENCODING 438
SWIDTH 463 0
DWIDTH 8 0
BBX 8 8 -1 0
BITMAP
39
6E
0C
FF
30
62
F6
9C
ENDCHAR
STARTCHAR uni01BB
ENCODING 443
SWIDTH 556 0
DWIDTH 9 0
BBX 9 12 -1 0
BITMAP
0E00
1300
2180
3180
3180
FF80
0600
0800
1000
2100
7E00
FE00
ENDCHAR
STARTCHAR uni01BC
ENCODING 444
SWIDTH 556 0
DWIDTH 9 0
BBX 10 12 0 0
BITMAP
1FC0
1F80
1000
2000
2000
3E00
4700
0300
4300
E200
C600
7800
ENDCHAR
STARTCHAR uni01C0
ENCODING 448
SWIDTH 606 0
DWIDTH 10 0
BBX 1 12 4 0
BITMAP
80
80
80
80
80
80
80
80
80
80
80
80
ENDCHAR
STARTCHAR uni01C2
ENCODING 450
SWIDTH 606 0
DWIDTH 10 0
BBX 8 12 1 -2
BITMAP
08
08
08
08
FF
08
08
FF
08
08
08
08
ENDCHAR
STARTCHAR uni01C3
ENCODING 451
SWIDTH 333 0
DWIDTH 6 0
BBX 5 12 0 0
BITMAP
18
18
10
30
30
20
20
40
40
00
C0
C0
ENDCHAR
STARTCHAR uni01CD
ENCODING 461
SWIDTH 704 0
DWIDTH 12 0
BBX 13 16 -2 0
BITMAP
0440
0280
0100
0000
0080
0180
0180
02C0
04C0
04C0
08C0
0FC0
1060
2060
2060
F9F8
ENDCHAR
STARTCHAR uni01CE
ENCODING 462
SWIDTH 574 0
DWIDTH 10 0
BBX 9 12 0 0
BITMAP
2200
1400
0800
0000
1B00
2600
6600
C600
CC00
CC80
CD00
7600
ENDCHAR
STARTCHAR uni01CF
ENCODING 463
SWIDTH 407 0
DWIDTH 7 0
BBX 8 16 -1 0
BITMAP
22
14
08
00
3F
0C
0C
0C
18
18
18
18
30
30
30
FC
ENDCHAR
STARTCHAR uni01D0
ENCODING 464
SWIDTH 333 0
DWIDTH 6 0
BBX 5 12 0 0
BITMAP
88
50
20
00
E0
20
60
40
40
C8
90
60
ENDCHAR
STARTCHAR uni01D1
ENCODING 465
SWIDTH 778 0
DWIDTH 13 0
BBX 12 16 0 0
BITMAP
0880
0500
0200
0000
07C0
1860
3030
6030
6030
C030
C030
C060
C060
C0C0
6180
3E00
ENDCHAR
STARTCHAR uni01D2
ENCODING 466
SWIDTH 500 0
DWIDTH 8 0
BBX 7 12 -1 0
BITMAP
44
28
10
00
3C
66
C6
C2
86
C6
CC
78
ENDCHAR
STARTCHAR uni01D3
ENCODING 467
SWIDTH 815 0
DWIDTH 13 0
BBX 13 16 1 0
BITMAP
0880
0500
0200
0000
FCF8
3020
3020
3020
6040
6040
6040
C080
C080
C080
4100
3E00
ENDCHAR
STARTCHAR uni01D4
ENCODING 468
SWIDTH 611 0
DWIDTH 10 0
BBX 9 12 0 0
BITMAP
2200
1400
0800
0000
E300
6300
6600
C600
CC00
CC80
9900
6E00
ENDCHAR
STARTCHAR uni01D5
ENCODING 469
SWIDTH 815 0
DWIDTH 13 0
BBX 13 17 1 0
BITMAP
0F80
0000
0440
0440
0000
FCF8
3020
3020
3020
6040
6040
6040
C080
C080
C080
4100
3E00
ENDCHAR
STARTCHAR uni01D6
ENCODING 470
SWIDTH 611 0
DWIDTH 10 0
BBX 9 13 0 0
BITMAP
3E00
0000
2200
2200
0000
E600
6600
6600
CC00
CC00
CC80
D900
6E00
ENDCHAR
STARTCHAR uni01D7
ENCODING 471
SWIDTH 815 0
DWIDTH 13 0
BBX 13 19 1 0
BITMAP
00C0
0180
0200
0000
0440
0440
0000
FCF8
3020
3020
3020
6040
6040
6040
C080
C080
C080
4100
3E00
ENDCHAR
STARTCHAR uni01D8
ENCODING 472
SWIDTH 611 0
DWIDTH 10 0
BBX 9 15 0 0
BITMAP
0300
0600
0800
0000
2200
2200
0000
E600
6600
6600
CC00
CC00
CC80
D900
6E00
ENDCHAR
STARTCHAR uni01D9
ENCODING 473
SWIDTH 815 0
DWIDTH 13 0
BBX 13 19 1 0
BITMAP
0880
0500
0200
0000
0440
0440
0000
FCF8
3020
3020
3020
6040
6040
6040
C080
C080
C080
4100
3E00
ENDCHAR
STARTCHAR uni01DA
ENCODING 474
SWIDTH 611 0
DWIDTH 10 0
BBX 9 15 0 0
BITMAP
2200
1400
0800
0000
2200
2200
0000
E600
6600
6600
CC00
CC00
CC80
D900
6E00
ENDCHAR
STARTCHAR uni01DB
ENCODING 475
SWIDTH 815 0
DWIDTH 13 0
BBX 13 19 1 0
BITMAP
0800
0400
0200
0000
0440
0440
0000
FCF8
3020
3020
3020
6040
6040
6040
C080
C080
C080
4100
3E00
ENDCHAR
STARTCHAR uni01DC
ENCODING 476
SWIDTH 611 0
DWIDTH 10 0
BBX 9 15 0 0
BITMAP
2000
1000
0800
0000
2200
2200
0000
E600
6600
6600
CC00
CC00
CC80
D900
6E00
ENDCHAR
STARTCHAR uni01DD
ENCODING 477
SWIDTH 444 0
DWIDTH 7 0
BBX 6 8 0 0
BITMAP
38
4C
04
3C
6C
CC
D8
70
ENDCHAR
STARTCHAR uni01DE
ENCODING 478
SWIDTH 704 0
DWIDTH 12 0
BBX 13 17 -1 0
BITMAP
07C0
0000
0220
0220
0000
0080
0180
0180
02C0
04C0
04C0
08C0
0FC0
1060
2060
2060
F9F8
ENDCHAR
STARTCHAR uni01DF
ENCODING 479
SWIDTH 574 0
DWIDTH 10 0
BBX 8 13 0 0
BITMAP
3E
00
12
12
00
3B
66
C6
C6
CC
CD
CD
76
ENDCHAR
STARTCHAR uni01E0
ENCODING 480
SWIDTH 704 0
DWIDTH 12 0
BBX 13 17 -2 0
BITMAP
07C0
0000
0180
0180
0000
0080
0180
0180
02C0
04C0
04C0
08C0
0FC0
1060
2060
2060
F9F8
ENDCHAR
STARTCHAR uni01E1
ENCODING 481
SWIDTH 574 0
DWIDTH 10 0
BBX 9 13 0 0
BITMAP
3E00
0000
0C00
0C00
0000
1B00
2600
6600
C600
CC00
CC80
CD00
7600
ENDCHAR
STARTCHAR uni01E2
ENCODING 482
SWIDTH 870 0
DWIDTH 14 0
BBX 15 14 -1 0
BITMAP
01F0
0000
07FE
01C6
02C4
04D4
0590
09F0
11A0
3F20
2304
430C
8318
E7F8
ENDCHAR
STARTCHAR uni01E3
ENCODING 483
SWIDTH 722 0
DWIDTH 12 0
BBX 12 10 -1 0
BITMAP
0F80
0000
3CE0
67B0
6710
1E30
77E0
C600
CF60
71C0
ENDCHAR
STARTCHAR uni01E4
ENCODING 484
SWIDTH 778 0
DWIDTH 13 0
BBX 14 12 0 0
BITMAP
07D0
1870
3020
6020
6020
C000
C3F0
C0C0
C0C0
C3FC
6180
3E80
ENDCHAR
STARTCHAR uni01E5
ENCODING 485
SWIDTH 537 0
DWIDTH 9 0
BBX 10 12 -2 -3
BITMAP
00C0
0F40
1980
3180
3180
1300
3E00
6000
3E00
FFC0
C300
7E00
ENDCHAR
STARTCHAR Gcaron
ENCODING 486
SWIDTH 778 0
DWIDTH 13 0
BBX 12 16 0 0
BITMAP
0880
0500
0200
0000
07D0
1870
3020
6020
6020
C000
C3F0
C0C0
C0C0
C180
6180
3E80
ENDCHAR
STARTCHAR gcaron
ENCODING 487
SWIDTH 537 0
DWIDTH 9 0
BBX 10 16 -2 -3
BITMAP
0880
0500
0200
0000
00C0
0F40
1980
3180
3180
1300
3E00
6000
3E00
C300
C300
7E00
ENDCHAR
STARTCHAR uni01E8
ENCODING 488
SWIDTH 741 0
DWIDTH 12 0
BBX 15 16 -1 0
BITMAP
0440
0280
0100
0000
3FBE
0C18
0C20
0C40
1880
1B80
1D80
1980
30C0
30C0
3060
FDF8
ENDCHAR
STARTCHAR uni01E9
ENCODING 489
SWIDTH 556 0
DWIDTH 9 0
BBX 8 16 0 0
BITMAP
44
28
10
00
70
30
30
20
6C
76
66
6C
58
D9
CA
8C
ENDCHAR
STARTCHAR uni01EA
ENCODING 490
SWIDTH 778 0
DWIDTH 13 0
BBX 12 15 0 -3
BITMAP
07C0
1860
3030
6030
6030
C030
C030
C060
C060
C0C0
6180
3E00
0400
0800
0E00
ENDCHAR
STARTCHAR uni01EB
ENCODING 491
SWIDTH 500 0
DWIDTH 8 0
BBX 7 11 -1 -3
BITMAP
3C
66
C6
C2
86
C6
CC
78
10
20
38
ENDCHAR
STARTCHAR uni01EC
ENCODING 492
SWIDTH 778 0
DWIDTH 13 0
BBX 12 17 0 -3
BITMAP
0F80
0000
07C0
1860
3030
6030
6030
C030
C030
C060
C060
C0C0
6180
3E00
0400
0800
0E00
ENDCHAR
STARTCHAR uni01ED
ENCODING 493
SWIDTH 500 0
DWIDTH 8 0
BBX 7 13 -1 -3
BITMAP
7C
00
3C
66
C6
C2
86
C6
CC
78
10
20
38
ENDCHAR
STARTCHAR uni01F0
ENCODING 496
SWIDTH 315 0
DWIDTH 5 0
BBX 8 15 -4 -3
BITMAP
11
0A
04
00
0E
06
06
06
04
0C
0C
0C
D8
98
60
ENDCHAR
STARTCHAR uni01F4
ENCODING 500
SWIDTH 778 0
DWIDTH 13 0
BBX 12 16 0 0
BITMAP
00C0
0180
0200
0000
07D0
1870
3020
6020
6020
C000
C3F0
C0C0
C0C0
C180
6180
3E80
ENDCHAR
STARTCHAR uni01F5
ENCODING 501
SWIDTH 537 0
DWIDTH 9 0
BBX 10 16 -2 -3
BITMAP
0180
0300
0400
0000
00C0
0F40
1980
3180
3180
1300
3E00
6000
3E00
C300
C300
7E00
ENDCHAR
STARTCHAR uni01F8
ENCODING 504
SWIDTH 815 0
DWIDTH 13 0
BBX 15 16 -1 0
BITMAP
0200
0100
0080
0000
3C3E
0E08
0E08
0B08
0B10
1190
1190
10D0
20E0
2060
2060
F820
ENDCHAR
STARTCHAR uni01F9
ENCODING 505
SWIDTH 611 0
DWIDTH 10 0
BBX 8 12 0 0
BITMAP
20
10
08
00
EC
76
66
66
CC
CC
89
86
ENDCHAR
STARTCHAR Aringacute
ENCODING 506
SWIDTH 704 0
DWIDTH 12 0
BBX 13 20 -1 0
BITMAP
0060
00C0
0100
0000
00C0
0120
00C0
0000
0080
0180
0180
02C0
04C0
04C0
08C0
0FC0
1060
2060
2060
F9F8
ENDCHAR
STARTCHAR aringacute
ENCODING 507
SWIDTH 574 0
DWIDTH 10 0
BBX 8 17 0 0
BITMAP
03
06
08
00
0C
12
12
0C
00
1B
66
C6
C6
CC
CD
CD
76
ENDCHAR
STARTCHAR AEacute
ENCODING 508
SWIDTH 870 0
DWIDTH 14 0
BBX 15 16 -1 0
BITMAP
0030
0060
0080
0000
07FE
01C6
02C4
04D4
0590
09F0
11A0
3F20
2304
430C
8318
E7F8
ENDCHAR
STARTCHAR aeacute
ENCODING 509
SWIDTH 722 0
DWIDTH 12 0
BBX 12 12 -1 0
BITMAP
0180
0300
0400
0000
3CE0
67B0
6710
1E30
77E0
C600
CF60
71C0
ENDCHAR
STARTCHAR Oslashacute
ENCODING 510
SWIDTH 778 0
DWIDTH 13 0
BBX 12 18 0 -1
BITMAP
00C0
0180
0200
0000
0010
07E0
1860
30B0
6130
6130
C230
C430
C860
C860
D0C0
6180
7E00
8000
ENDCHAR
STARTCHAR oslashacute
ENCODING 511
SWIDTH 500 0
DWIDTH 8 0
BBX 7 16 -1 -2
BITMAP
06
0C
10
00
02
02
3C
6E
CA
D2
96
A6
EC
78
80
80
ENDCHAR
STARTCHAR Scommaaccent
ENCODING 536
SWIDTH 667 0
DWIDTH 11 0
BBX 11 18 -1 -6
BITMAP
0F20
18E0
3040
3040
3840
1F00
0780
41C0
40C0
40C0
E180
9E00
0000
0C00
0C00
0400
0800
1000
ENDCHAR
STARTCHAR scommaaccent
ENCODING 537
SWIDTH 444 0
DWIDTH 7 0
BBX 6 14 -1 -6
BITMAP
38
6C
44
70
38
88
D8
70
00
30
30
10
20
40
ENDCHAR
STARTCHAR Tcommaaccent
ENCODING 538
SWIDTH 685 0
DWIDTH 11 0
BBX 12 18 0 -6
BITMAP
7FF0
6670
C620
8620
8C20
0C00
0C00
0C00
1800
1800
1800
7E00
0000
0C00
0C00
0400
0800
1000
ENDCHAR
STARTCHAR tcommaaccent
ENCODING 539
SWIDTH 352 0
DWIDTH 6 0
BBX 6 17 -1 -6
BITMAP
0C
18
18
7C
30
30
60
60
C8
D0
60
00
30
30
10
20
40
ENDCHAR
STARTCHAR uni021E
ENCODING 542
SWIDTH 833 0
DWIDTH 14 0
BBX 15 16 -1 0
BITMAP
0220
0140
0080
0000
3F7E
0C18
0C18
0C18
1830
1FF0
1830
1830
3060
3060
3060
FDF8
ENDCHAR
STARTCHAR uni021F
ENCODING 543
SWIDTH 611 0
DWIDTH 10 0
BBX 9 16 0 0
BITMAP
4400
2800
1000
0000
7000
3000
3000
6000
6C00
7600
6600
C600
CC00
CC80
8900
8600
ENDCHAR
STARTCHAR uni0226
ENCODING 550
SWIDTH 704 0
DWIDTH 12 0
BBX 13 15 -2 0
BITMAP
0180
0180
0000
0080
0180
0180
02C0
04C0
04C0
08C0
0FC0
1060
2060
2060
F9F8
ENDCHAR
STARTCHAR uni0227
ENCODING 551
SWIDTH 574 0
DWIDTH 10 0
BBX 9 11 0 0
BITMAP
0C00
0C00
0000
1B00
2600
6600
C600
CC00
CC80
CD00
7600
ENDCHAR
STARTCHAR uni0228
ENCODING 552
SWIDTH 722 0
DWIDTH 12 0
BBX 13 15 -1 -3
BITMAP
3FF8
0C18
0C10
0C90
1980
1F80
1900
1900
3010
3030
3060
FFE0
0600
0100
0600
ENDCHAR
STARTCHAR uni0229
ENCODING 553
SWIDTH 444 0
DWIDTH 7 0
BBX 6 11 0 -3
BITMAP
38
6C
CC
D8
F0
80
C8
70
60
10
60
ENDCHAR
STARTCHAR uni022A
ENCODING 554
SWIDTH 778 0
DWIDTH 13 0
BBX 12 17 0 0
BITMAP
07C0
0000
0440
0440
0000
07C0
1860
3030
6030
6030
C030
C030
C060
C060
C0C0
6180
3E00
ENDCHAR
STARTCHAR uni022B
ENCODING 555
SWIDTH 500 0
DWIDTH 8 0
BBX 7 13 -1 0
BITMAP
3E
00
12
12
00
3C
66
C6
C2
86
C6
CC
78
ENDCHAR
STARTCHAR uni022C
ENCODING 556
SWIDTH 778 0
DWIDTH 13 0
BBX 12 17 0 0
BITMAP
07C0
0000
03A0
05C0
0000
07C0
1860
3030
6030
6030
C030
C030
C060
C060
C0C0
6180
3E00
ENDCHAR
STARTCHAR uni022D
ENCODING 557
SWIDTH 500 0
DWIDTH 8 0
BBX 8 13 -1 0
BITMAP
3E
00
1D
2E
00
3C
66
C6
C2
86
C6
CC
78
ENDCHAR
STARTCHAR uni022E
ENCODING 558
SWIDTH 778 0
DWIDTH 13 0
BBX 12 15 0 0
BITMAP
0300
0300
0000
07C0
1860
3030
6030
6030
C030
C030
C060
C060
C0C0
6180
3E00
ENDCHAR
STARTCHAR uni022F
ENCODING 559
SWIDTH 500 0
DWIDTH 8 0
BBX 7 11 -1 0
BITMAP
18
18
00
3C
66
C6
C2
86
C6
CC
78
ENDCHAR
STARTCHAR uni0230
ENCODING 560
SWIDTH 778 0
DWIDTH 13 0
BBX 12 17 0 0
BITMAP
0F80
0000
0300
0300
0000
07C0
1860
3030
6030
6030
C030
C030
C060
C060
C0C0
6180
3E00
ENDCHAR
STARTCHAR uni0231
ENCODING 561
SWIDTH 500 0
DWIDTH 8 0
BBX 7 13 -1 0
BITMAP
7C
00
18
18
00
3C
66
C6
C2
86
C6
CC
78
ENDCHAR
STARTCHAR uni0232
ENCODING 562
SWIDTH 685 0
DWIDTH 11 0
BBX 13 14 0 0
BITMAP
0F80
0000
F8F8
3060
3040
1880
1900
1A00
0C00
0C00
0C00
1800
1800
7E00
ENDCHAR
STARTCHAR uni0233
ENCODING 563
SWIDTH 500 0
DWIDTH 8 0
BBX 10 13 -3 -3
BITMAP
1F00
0000
10C0
38C0
5980
0D80
0D00
0700
0600
0600
CC00
C800
7000
ENDCHAR
STARTCHAR uni0250
ENCODING 592
SWIDTH 574 0
DWIDTH 10 0
BBX 9 8 0 0
BITMAP
3700
5980
9980
1980
3180
3300
3200
6C00
ENDCHAR
STARTCHAR uni0259
ENCODING 601
SWIDTH 444 0
DWIDTH 7 0
BBX 6 8 0 0
BITMAP
38
4C
04
3C
6C
CC
D8
70
ENDCHAR
STARTCHAR uni025F
ENCODING 607
SWIDTH 333 0
DWIDTH 5 0
BBX 9 15 -2 -7
BITMAP
0180
0100
0300
0300
0200
0600
0600
0400
0C00
0C00
3E00
1800
D800
9000
E000
ENDCHAR
STARTCHAR uni0265
ENCODING 613
SWIDTH 611 0
DWIDTH 10 0
BBX 9 12 0 -4
BITMAP
3080
4880
9980
1980
3180
3300
3700
1B00
0300
0600
0600
0700
ENDCHAR
STARTCHAR uni0275
ENCODING 629
SWIDTH 500 0
DWIDTH 8 0
BBX 7 8 -1 0
BITMAP
3C
66
C6
FE
86
C6
CC
78
ENDCHAR
STARTCHAR uni0279
ENCODING 633
SWIDTH 444 0
DWIDTH 7 0
BBX 7 8 -1 0
BITMAP
06
06
06
0C
0C
EC
CC
76
ENDCHAR
STARTCHAR uni0287
ENCODING 647
SWIDTH 352 0
DWIDTH 6 0
BBX 6 11 -1 0
BITMAP
18
2C
4C
18
18
30
30
F8
60
60
C0
ENDCHAR
STARTCHAR uni0289
ENCODING 649
SWIDTH 611 0
DWIDTH 10 0
BBX 9 8 0 0
BITMAP
E300
6300
6600
FF80
CC00
CC80
9900
6E00
ENDCHAR
STARTCHAR uni028C
ENCODING 652
SWIDTH 519 0
DWIDTH 8 0
BBX 7 8 -1 0
BITMAP
18
2C
64
44
CC
CC
8C
DE
ENDCHAR
STARTCHAR uni028D
ENCODING 653
SWIDTH 778 0
DWIDTH 13 0
BBX 12 8 -1 0
BITMAP
18C0
2D60
4620
C660
C660
CC60
8CC0
CCF0
ENDCHAR
STARTCHAR uni028E
ENCODING 654
SWIDTH 500 0
DWIDTH 8 0
BBX 10 11 -3 0
BITMAP
0380
04C0
0CC0
1800
1800
3800
2C00
6C00
6680
C700
C200
ENDCHAR
STARTCHAR uni029E
ENCODING 670
SWIDTH 556 0
DWIDTH 9 0
BBX 8 12 0 -4
BITMAP
31
53
9B
1A
36
66
6E
36
04
0C
0C
0E
ENDCHAR
STARTCHAR uni02BB
ENCODING 699
SWIDTH 204 0
DWIDTH 3 0
BBX 3 5 0 7
BITMAP
20
40
80
C0
C0
ENDCHAR
STARTCHAR afii57929
ENCODING 700
SWIDTH 204 0
DWIDTH 3 0
BBX 3 5 0 7
BITMAP
60
60
20
40
80
ENDCHAR
STARTCHAR afii64937
ENCODING 701
SWIDTH 204 0
DWIDTH 3 0
BBX 3 5 0 7
BITMAP
C0
C0
80
40
20
ENDCHAR
STARTCHAR circumflex
ENCODING 710
SWIDTH 333 0
DWIDTH 5 0
BBX 5 3 0 9
BITMAP
20
50
88
ENDCHAR
STARTCHAR caron
ENCODING 711
SWIDTH 333 0
DWIDTH 5 0
BBX 5 3 1 9
BITMAP
88
50
20
ENDCHAR
STARTCHAR uni02C8
ENCODING 712
SWIDTH 278 0
DWIDTH 5 0
BBX 2 4 2 8
BITMAP
40
40
80
80
ENDCHAR
STARTCHAR macron
ENCODING 713
SWIDTH 333 0
DWIDTH 5 0
BBX 5 1 1 9
BITMAP
F8
ENDCHAR
STARTCHAR uni02CA
ENCODING 714
SWIDTH 333 0
DWIDTH 5 0
BBX 4 3 1 9
BITMAP
30
60
80
ENDCHAR
STARTCHAR uni02CB
ENCODING 715
SWIDTH 333 0
DWIDTH 5 0
BBX 3 3 1 9
BITMAP
80
40
20
ENDCHAR
STARTCHAR uni02CD
ENCODING 717
SWIDTH 333 0
DWIDTH 5 0
BBX 5 1 1 -2
BITMAP
F8
ENDCHAR
STARTCHAR uni02CE
ENCODING 718
SWIDTH 333 0
DWIDTH 5 0
BBX 3 3 1 -4
BITMAP
80
40
20
ENDCHAR
STARTCHAR uni02CF
ENCODING 719
SWIDTH 333 0
DWIDTH 5 0
BBX 4 3 1 -4
BITMAP
30
60
80
ENDCHAR
STARTCHAR breve
ENCODING 728
SWIDTH 333 0
DWIDTH 6 0
BBX 5 3 1 9
BITMAP
88
88
70
ENDCHAR
STARTCHAR dotaccent
ENCODING 729
SWIDTH 333 0
DWIDTH 5 0
BBX 2 2 2 9
BITMAP
C0
C0
ENDCHAR
STARTCHAR ring
ENCODING 730
SWIDTH 333 0
DWIDTH 5 0
BBX 4 4 2 8
BITMAP
60
90
90
60
ENDCHAR
STARTCHAR ogonek
ENCODING 731
SWIDTH 333 0
DWIDTH 5 0
BBX 3 3 1 -3
BITMAP
40
80
E0
ENDCHAR
STARTCHAR tilde
ENCODING 732
SWIDTH 333 0
DWIDTH 6 0
BBX 6 2 1 9
BITMAP
64
98
ENDCHAR
STARTCHAR hungarumlaut
ENCODING 733
SWIDTH 333 0
DWIDTH 5 0
BBX 6 3 1 9
BITMAP
24
48
90
ENDCHAR
STARTCHAR uni02EE
ENCODING 750
SWIDTH 389 0
DWIDTH 6 0
BBX 6 5 0 8
BITMAP
6C
6C
24
48
90
ENDCHAR
STARTCHAR uni037E
ENCODING 894
SWIDTH 278 0
DWIDTH 5 0
BBX 5 11 -1 -3
BITMAP
18
18
00
00
00
00
60
60
20
40
80
ENDCHAR
STARTCHAR tonos
ENCODING 900
SWIDTH 333 0
DWIDTH 5 0
BBX 4 3 1 9
BITMAP
30
60
80
ENDCHAR
STARTCHAR dieresistonos
ENCODING 901
SWIDTH 333 0
DWIDTH 6 0
BBX 6 6 1 9
BITMAP
0C
18
20
00
D8
D8
ENDCHAR
STARTCHAR anoteleia
ENCODING 903
SWIDTH 278 0
DWIDTH 5 0
BBX 2 2 1 3
BITMAP
C0
C0
ENDCHAR
STARTCHAR mu
ENCODING 956
SWIDTH 611 0
DWIDTH 10 0
BBX 10 11 -1 -3
BITMAP
7300
3300
3300
6600
6600
6640
4C80
7700
C000
C000
8000
ENDCHAR
STARTCHAR uni1E00
ENCODING 7680
SWIDTH 704 0
DWIDTH 12 0
BBX 13 17 -2 -5
BITMAP
0080
0180
0180
02C0
04C0
04C0
08C0
0FC0
1060
2060
2060
F9F8
0000
0300
0480
0480
0300
ENDCHAR
STARTCHAR uni1E01
ENCODING 7681
SWIDTH 574 0
DWIDTH 10 0
BBX 9 13 0 -5
BITMAP
1B00
2600
6600
C600
CC00
CC80
CD00
7600
0000
1800
2400
2400
1800
ENDCHAR
STARTCHAR uni1E02
ENCODING 7682
SWIDTH 722 0
DWIDTH 12 0
BBX 11 15 -1 0
BITMAP
0600
0600
0000
3FC0
0C60
0C20
1860
1840
1F80
18C0
1860
3060
3060
30C0
FF80
ENDCHAR
STARTCHAR uni1E03
ENCODING 7683
SWIDTH 556 0
DWIDTH 9 0
BBX 7 15 0 0
BITMAP
30
30
00
70
30
30
60
7C
6E
C6
C6
C6
84
D8
70
ENDCHAR
STARTCHAR uni1E04
ENCODING 7684
SWIDTH 722 0
DWIDTH 12 0
BBX 11 15 -1 -3
BITMAP
3FC0
0C60
0C20
1860
1840
1F80
18C0
1860
3060
3060
30C0
FF80
0000
0600
0600
ENDCHAR
STARTCHAR uni1E05
ENCODING 7685
SWIDTH 556 0
DWIDTH 9 0
BBX 7 15 0 -3
BITMAP
70
30
30
60
7C
6E
C6
C6
C6
84
D8
70
00
30
30
ENDCHAR
STARTCHAR uni1E06
ENCODING 7686
SWIDTH 722 0
DWIDTH 12 0
BBX 11 14 -1 -2
BITMAP
3FC0
0C60
0C20
1860
1840
1F80
18C0
1860
3060
3060
30C0
FF80
0000
1F00
ENDCHAR
STARTCHAR uni1E07
ENCODING 7687
SWIDTH 556 0
DWIDTH 9 0
BBX 7 14 0 -2
BITMAP
70
30
30
60
7C
6E
C6
C6
C6
84
D8
70
00
7C
ENDCHAR
STARTCHAR uni1E08
ENCODING 7688
SWIDTH 722 0
DWIDTH 12 0
BBX 11 19 0 -3
BITMAP
0180
0300
0400
0000
07A0
18E0
3040
6040
6040
C000
C000
C000
C040
C080
6180
3E00
1800
0400
1800
ENDCHAR
STARTCHAR uni1E09
ENCODING 7689
SWIDTH 444 0
DWIDTH 8 0
BBX 7 15 0 -3
BITMAP
06
0C
10
00
3C
66
CE
C0
C0
84
C8
70
20
10
60
ENDCHAR
STARTCHAR uni1E0A
ENCODING 7690
SWIDTH 778 0
DWIDTH 13 0
BBX 13 15 -1 0
BITMAP
0300
0300
0000
3FC0
0C30
0C10
0C18
1818
1818
1818
1830
3030
3060
30C0
FF00
ENDCHAR
STARTCHAR uni1E0B
ENCODING 7691
SWIDTH 611 0
DWIDTH 10 0
BBX 9 15 0 0
BITMAP
0300
0300
0000
0380
0180
0100
0300
3B00
6600
C600
C600
C600
8C80
CD00
7600
ENDCHAR
STARTCHAR uni1E0C
ENCODING 7692
SWIDTH 778 0
DWIDTH 13 0
BBX 13 15 -1 -3
BITMAP
3FC0
0C30
0C10
0C18
1818
1818
1818
1830
3030
3060
30C0
FF00
0000
0600
0600
ENDCHAR
STARTCHAR uni1E0D
ENCODING 7693
SWIDTH 611 0
DWIDTH 10 0
BBX 9 15 0 -3
BITMAP
0380
0180
0100
0300
3B00
6600
C600
C600
C600
8C80
CD00
7600
0000
1800
1800
ENDCHAR
STARTCHAR uni1E0E
ENCODING 7694
SWIDTH 778 0
DWIDTH 13 0
BBX 13 14 -1 -2
BITMAP
3FC0
0C30
0C10
0C18
1818
1818
1818
1830
3030
3060
30C0
FF00
0000
1F00
ENDCHAR
STARTCHAR uni1E0F
ENCODING 7695
SWIDTH 611 0
DWIDTH 10 0
BBX 9 14 0 -2
BITMAP
0380
0180
0100
0300
3B00
6600
C600
C600
C600
8C80
CD00
7600
0000
3E00
ENDCHAR
STARTCHAR uni1E10
ENCODING 7696
SWIDTH 778 0
DWIDTH 13 0
BBX 13 15 -1 -3
BITMAP
3FC0
0C30
0C10
0C18
1818
1818
1818
1830
3030
3060
30C0
FF00
0600
0100
0600
ENDCHAR
STARTCHAR uni1E11
ENCODING 7697
SWIDTH 611 0
DWIDTH 10 0
BBX 9 15 0 -3
BITMAP
0380
0180
0100
0300
3B00
6600
C600
C600
C600
8C80
CD00
7E00
1800
0400
1800
ENDCHAR
STARTCHAR uni1E12
ENCODING 7698
SWIDTH 778 0
DWIDTH 13 0
BBX 13 16 -1 -4
BITMAP
3FC0
0C30
0C10
0C18
1818
1818
1818
1830
3030
3060
30C0
FF00
0000
0400
0A00
1100
ENDCHAR
STARTCHAR uni1E13
ENCODING 7699
SWIDTH 611 0
DWIDTH 10 0
BBX 9 16 0 -4
BITMAP
0380
0180
0100
0300
3B00
6600
C600
C600
C600
8C80
CD00
7600
0000
0800
1400
2200
ENDCHAR
STARTCHAR uni1E14
ENCODING 7700
SWIDTH 722 0
DWIDTH 12 0
BBX 13 18 -1 0
BITMAP
0400
0200
0100
0000
07C0
0000
3FF8
0C18
0C10
0C90
1980
1F80
1900
1900
3010
3030
3060
FFE0
ENDCHAR
STARTCHAR uni1E15
ENCODING 7701
SWIDTH 444 0
DWIDTH 7 0
BBX 6 14 0 0
BITMAP
40
20
10
00
7C
00
38
6C
CC
D8
F0
80
C8
70
ENDCHAR
STARTCHAR uni1E16
ENCODING 7702
SWIDTH 722 0
DWIDTH 12 0
BBX 13 18 -1 0
BITMAP
00C0
0180
0200
0000
07C0
0000
3FF8
0C18
0C10
0C90
1980
1F80
1900
1900
3010
3030
3060
FFE0
ENDCHAR
STARTCHAR uni1E17
ENCODING 7703
SWIDTH 444 0
DWIDTH 7 0
BBX 6 14 0 0
BITMAP
0C
18
20
00
7C
00
38
6C
CC
D8
F0
80
C8
70
ENDCHAR
STARTCHAR uni1E18
ENCODING 7704
SWIDTH 722 0
DWIDTH 12 0
BBX 13 16 -1 -4
BITMAP
3FF8
0C18
0C10
0C90
1980
1F80
1900
1900
3010
3030
3060
FFE0
0000
0200
0500
0880
ENDCHAR
STARTCHAR uni1E19
ENCODING 7705
SWIDTH 444 0
DWIDTH 7 0
BBX 6 12 0 -4
BITMAP
38
6C
CC
D8
F0
80
C8
70
00
20
50
88
ENDCHAR
STARTCHAR uni1E1A
ENCODING 7706
SWIDTH 722 0
DWIDTH 12 0
BBX 13 15 -1 -3
BITMAP
3FF8
0C18
0C10
0C90
1980
1F80
1900
1900
3010
3030
3060
FFE0
0000
0C80
1300
ENDCHAR
STARTCHAR uni1E1B
ENCODING 7707
SWIDTH 444 0
DWIDTH 7 0
BBX 7 11 -1 -3
BITMAP
1C
36
66
6C
78
40
64
38
00
64
98
ENDCHAR
STARTCHAR uni1E1C
ENCODING 7708
SWIDTH 722 0
DWIDTH 12 0
BBX 13 19 -1 -3
BITMAP
0440
0440
0380
0000
3FF8
0C18
0C10
0C90
1980
1F80
1900
1900
3010
3030
3060
FFE0
0600
0100
0600
ENDCHAR
STARTCHAR uni1E1D
ENCODING 7709
SWIDTH 444 0
DWIDTH 7 0
BBX 6 15 0 -3
BITMAP
44
44
38
00
38
6C
CC
D8
F0
80
C8
70
60
10
60
ENDCHAR
STARTCHAR uni1E1E
ENCODING 7710
SWIDTH 667 0
DWIDTH 11 0
BBX 13 15 -1 0
BITMAP
0300
0300
0000
3FF8
0C18
0C10
0C90
1980
1F80
1900
1900
3000
3000
3000
FC00
ENDCHAR
STARTCHAR uni1E1F
ENCODING 7711
SWIDTH 333 0
DWIDTH 5 0
BBX 9 18 -2 -3
BITMAP
0600
0600
0000
0380
0480
0D80
0C00
3E00
1800
1800
1000
3000
3000
2000
6000
6000
4000
C000
ENDCHAR
STARTCHAR uni1E20
ENCODING 7712
SWIDTH 778 0
DWIDTH 13 0
BBX 12 14 0 0
BITMAP
0F80
0000
07D0
1870
3020
6020
6020
C000
C3F0
C0C0
C0C0
C180
6180
3E80
ENDCHAR
STARTCHAR uni1E21
ENCODING 7713
SWIDTH 537 0
DWIDTH 9 0
BBX 10 14 -2 -3
BITMAP
0F80
0000
00C0
0F40
1980
3180
3180
1300
3E00
6000
3E00
C300
C300
7E00
ENDCHAR
STARTCHAR uni1E22
ENCODING 7714
SWIDTH 833 0
DWIDTH 14 0
BBX 15 15 -1 0
BITMAP
0180
0180
0000
3F7E
0C18
0C18
0C18
1830
1FF0
1830
1830
3060
3060
3060
FDF8
ENDCHAR
STARTCHAR uni1E23
ENCODING 7715
SWIDTH 611 0
DWIDTH 10 0
BBX 9 15 0 0
BITMAP
3000
3000
0000
7000
3000
3000
6000
6C00
7600
6600
C600
CC00
CC80
8900
8600
ENDCHAR
STARTCHAR uni1E24
ENCODING 7716
SWIDTH 833 0
DWIDTH 14 0
BBX 15 15 -1 -3
BITMAP
3F7E
0C18
0C18
0C18
1830
1FF0
1830
1830
3060
3060
3060
FDF8
0000
0300
0300
ENDCHAR
STARTCHAR uni1E25
ENCODING 7717
SWIDTH 611 0
DWIDTH 10 0
BBX 9 15 0 -3
BITMAP
7000
3000
3000
6000
6C00
7600
6600
C600
CC00
CC80
8900
8600
0000
1800
1800
ENDCHAR
STARTCHAR uni1E26
ENCODING 7718
SWIDTH 833 0
DWIDTH 14 0
BBX 15 15 -1 0
BITMAP
0360
0360
0000
3F7E
0C18
0C18
0C18
1830
1FF0
1830
1830
3060
3060
3060
FDF8
ENDCHAR
STARTCHAR uni1E27
ENCODING 7719
SWIDTH 611 0
DWIDTH 10 0
BBX 9 15 0 0
BITMAP
6C00
6C00
0000
7000
3000
3000
6000
6C00
7600
6600
C600
CC00
CC80
8900
8600
ENDCHAR
STARTCHAR uni1E28
ENCODING 7720
SWIDTH 833 0
DWIDTH 14 0
BBX 15 15 -1 -3
BITMAP
3F7E
0C18
0C18
0C18
1830
1FF0
1830
1830
3060
3060
3060
FDF8
0300
0080
0300
ENDCHAR
STARTCHAR uni1E29
ENCODING 7721
SWIDTH 611 0
DWIDTH 10 0
BBX 9 15 0 -3
BITMAP
7000
3000
3000
6000
6C00
7600
6600
C600
CC00
CC80
8900
8E00
1800
0400
1800
ENDCHAR
STARTCHAR uni1E2A
ENCODING 7722
SWIDTH 833 0
DWIDTH 14 0
BBX 15 16 -1 -4
BITMAP
3F7E
0C18
0C18
0C18
1830
1FF0
1830
1830
3060
3060
3060
FDF8
0000
0880
0880
0700
ENDCHAR
STARTCHAR uni1E2B
ENCODING 7723
SWIDTH 611 0
DWIDTH 10 0
BBX 9 16 0 -4
BITMAP
7000
3000
3000
6000
6C00
7600
6600
C600
CC00
CC80
8900
8600
0000
2200
2200
1C00
ENDCHAR
STARTCHAR uni1E2C
ENCODING 7724
SWIDTH 407 0
DWIDTH 7 0
BBX 8 15 -1 -3
BITMAP
3F
0C
0C
0C
18
18
18
18
30
30
30
FC
00
64
98
ENDCHAR
STARTCHAR uni1E2D
ENCODING 7725
SWIDTH 333 0
DWIDTH 6 0
BBX 6 15 -1 -3
BITMAP
18
18
00
00
70
30
30
60
60
64
68
30
00
64
98
ENDCHAR
STARTCHAR uni1E2E
ENCODING 7726
SWIDTH 407 0
DWIDTH 7 0
BBX 8 19 -1 0
BITMAP
03
06
08
00
11
11
00
3F
0C
0C
0C
18
18
18
18
30
30
30
FC
ENDCHAR
STARTCHAR uni1E2F
ENCODING 7727
SWIDTH 333 0
DWIDTH 6 0
BBX 6 15 0 0
BITMAP
0C
18
20
00
88
88
00
E0
60
60
60
C0
C8
D0
60
ENDCHAR
STARTCHAR uni1E30
ENCODING 7728
SWIDTH 741 0
DWIDTH 12 0
BBX 15 16 -1 0
BITMAP
0060
00C0
0100
0000
3FBE
0C18
0C20
0C40
1880
1B80
1D80
1980
30C0
30C0
3060
FDF8
ENDCHAR
STARTCHAR uni1E31
ENCODING 7729
SWIDTH 556 0
DWIDTH 9 0
BBX 8 16 0 0
BITMAP
0C
18
20
00
70
30
30
20
6C
76
66
6C
58
D9
CA
8C
ENDCHAR
STARTCHAR uni1E32
ENCODING 7730
SWIDTH 741 0
DWIDTH 12 0
BBX 15 15 -1 -3
BITMAP
3FBE
0C18
0C20
0C40
1880
1B80
1D80
1980
30C0
30C0
3060
FDF8
0000
0300
0300
ENDCHAR
STARTCHAR uni1E33
ENCODING 7731
SWIDTH 556 0
DWIDTH 9 0
BBX 8 15 0 -3
BITMAP
70
30
30
20
6C
76
66
6C
58
D9
CA
8C
00
18
18
ENDCHAR
STARTCHAR uni1E34
ENCODING 7732
SWIDTH 741 0
DWIDTH 12 0
BBX 15 14 -1 -2
BITMAP
3FBE
0C18
0C20
0C40
1880
1B80
1D80
1980
30C0
30C0
3060
FDF8
0000
0F80
ENDCHAR
STARTCHAR uni1E35
ENCODING 7733
SWIDTH 556 0
DWIDTH 9 0
BBX 8 14 0 -2
BITMAP
70
30
30
20
6C
76
66
6C
58
D9
CA
8C
00
7C
ENDCHAR
STARTCHAR uni1E36
ENCODING 7734
SWIDTH 667 0
DWIDTH 11 0
BBX 11 15 -1 -3
BITMAP
3F00
0C00
0C00
0C00
1800
1800
1800
1820
3060
3040
31C0
FFC0
0000
0600
0600
ENDCHAR
STARTCHAR uni1E37
ENCODING 7735
SWIDTH 333 0
DWIDTH 6 0
BBX 5 15 0 -3
BITMAP
70
30
30
60
60
60
40
C0
C0
C8
D0
60
00
60
60
ENDCHAR
STARTCHAR uni1E38
ENCODING 7736
SWIDTH 667 0
DWIDTH 11 0
BBX 11 17 -1 -3
BITMAP
1F00
0000
3F00
0C00
0C00
0C00
1800
1800
1800
1820
3060
3040
31C0
FFC0
0000
0600
0600
ENDCHAR
STARTCHAR uni1E39
ENCODING 7737
SWIDTH 333 0
DWIDTH 6 0
BBX 5 17 0 -3
BITMAP
F8
00
70
30
30
60
60
60
40
C0
C0
C8
D0
60
00
60
60
ENDCHAR
STARTCHAR uni1E3A
ENCODING 7738
SWIDTH 667 0
DWIDTH 11 0
BBX 11 14 -1 -2
BITMAP
3F00
0C00
0C00
0C00
1800
1800
1800
1820
3060
3040
31C0
FFC0
0000
1F00
ENDCHAR
STARTCHAR uni1E3B
ENCODING 7739
SWIDTH 333 0
DWIDTH 6 0
BBX 5 14 0 -2
BITMAP
70
30
30
60
60
60
40
C0
C0
C8
D0
60
00
F8
ENDCHAR
STARTCHAR uni1E3C
ENCODING 7740
SWIDTH 667 0
DWIDTH 11 0
BBX 11 16 -1 -4
BITMAP
3F00
0C00
0C00
0C00
1800
1800
1800
1820
3060
3040
31C0
FFC0
0000
0400
0A00
1100
ENDCHAR
STARTCHAR uni1E3D
ENCODING 7741
SWIDTH 333 0
DWIDTH 6 0
BBX 5 16 0 -4
BITMAP
70
30
30
60
60
60
40
C0
C0
C8
D0
60
00
20
50
88
ENDCHAR
STARTCHAR uni1E3E
ENCODING 7742
SWIDTH 944 0
DWIDTH 16 0
BBX 17 16 -1 0
BITMAP
003000
006000
008000
000000
3E0780
0E0E00
0E1600
0E1600
162C00
164C00
134C00
138C00
231800
231800
221800
FA7E00
ENDCHAR
STARTCHAR uni1E3F
ENCODING 7743
SWIDTH 889 0
DWIDTH 15 0
BBX 12 12 1 0
BITMAP
0180
0300
0400
0000
EDC0
3660
6660
6660
CCC0
CCC0
8890
9860
ENDCHAR
STARTCHAR uni1E40
ENCODING 7744
SWIDTH 944 0
DWIDTH 16 0
BBX 17 15 -1 0
BITMAP
00C000
00C000
000000
3E0780
0E0E00
0E1600
0E1600
162C00
164C00
134C00
138C00
231800
231800
221800
FA7E00
ENDCHAR
STARTCHAR uni1E41
ENCODING 7745
SWIDTH 889 0
DWIDTH 15 0
BBX 12 11 1 0
BITMAP
0600
0600
0000
EDC0
3660
6660
6660
CCC0
CCC0
8890
9860
ENDCHAR
STARTCHAR uni1E42
ENCODING 7746
SWIDTH 944 0
DWIDTH 16 0
BBX 17 15 -1 -3
BITMAP
3E0780
0E0E00
0E1600
0E1600
162C00
164C00
134C00
138C00
231800
231800
221800
FA7E00
000000
018000
018000
ENDCHAR
STARTCHAR uni1E43
ENCODING 7747
SWIDTH 889 0
DWIDTH 15 0
BBX 12 11 1 -3
BITMAP
EDC0
3660
6660
6660
CCC0
CCC0
8890
9860
0000
0600
0600
ENDCHAR
STARTCHAR uni1E44
ENCODING 7748
SWIDTH 815 0
DWIDTH 13 0
BBX 15 15 -1 0
BITMAP
0180
0180
0000
3C3E
0E08
0E08
0B08
0B10
1190
1190
10D0
20E0
2060
2060
F820
ENDCHAR
STARTCHAR uni1E45
ENCODING 7749
SWIDTH 611 0
DWIDTH 10 0
BBX 8 11 0 0
BITMAP
18
18
00
EC
76
66
66
CC
CC
89
86
ENDCHAR
STARTCHAR uni1E46
ENCODING 7750
SWIDTH 815 0
DWIDTH 13 0
BBX 15 15 -1 -3
BITMAP
3C3E
0E08
0E08
0B08
0B10
1190
1190
10D0
20E0
2060
2060
F820
0000
0300
0300
ENDCHAR
STARTCHAR uni1E47
ENCODING 7751
SWIDTH 611 0
DWIDTH 10 0
BBX 8 11 0 -3
BITMAP
EC
76
66
66
CC
CC
89
86
00
18
18
ENDCHAR
STARTCHAR uni1E48
ENCODING 7752
SWIDTH 815 0
DWIDTH 13 0
BBX 15 14 -1 -2
BITMAP
3C3E
0E08
0E08
0B08
0B10
1190
1190
10D0
20E0
2060
2060
F820
0000
0F80
ENDCHAR
STARTCHAR uni1E49
ENCODING 7753
SWIDTH 611 0
DWIDTH 10 0
BBX 8 10 0 -2
BITMAP
EC
76
66
66
CC
CC
89
86
00
7C
ENDCHAR
STARTCHAR uni1E4A
ENCODING 7754
SWIDTH 815 0
DWIDTH 13 0
BBX 15 16 -1 -4
BITMAP
3C3E
0E08
0E08
0B08
0B10
1190
1190
10D0
20E0
2060
2060
F820
0000
0200
0500
0880
ENDCHAR
STARTCHAR uni1E4B
ENCODING 7755
SWIDTH 611 0
DWIDTH 10 0
BBX 8 12 0 -4
BITMAP
EC
76
66
66
CC
CC
89
86
00
10
28
44
ENDCHAR
STARTCHAR uni1E4C
ENCODING 7756
SWIDTH 778 0
DWIDTH 13 0
BBX 12 19 0 0
BITMAP
00C0
0180
0200
0000
03A0
05C0
0000
07C0
1860
3030
6030
6030
C030
C030
C060
C060
C0C0
6180
3E00
ENDCHAR
STARTCHAR uni1E4D
ENCODING 7757
SWIDTH 500 0
DWIDTH 8 0
BBX 8 15 -1 0
BITMAP
03
06
08
00
1D
2E
00
3C
66
C6
C2
86
C6
CC
78
ENDCHAR
STARTCHAR uni1E4E
ENCODING 7758
SWIDTH 778 0
DWIDTH 13 0
BBX 12 18 0 0
BITMAP
06C0
06C0
0000
03A0
05C0
0000
07C0
1860
3030
6030
6030
C030
C030
C060
C060
C0C0
6180
3E00
ENDCHAR
STARTCHAR uni1E4F
ENCODING 7759
SWIDTH 500 0
DWIDTH 8 0
BBX 8 14 -1 0
BITMAP
36
36
00
1D
2E
00
3C
66
C6
C2
86
C6
CC
78
ENDCHAR
STARTCHAR uni1E50
ENCODING 7760
SWIDTH 778 0
DWIDTH 13 0
BBX 12 18 0 0
BITMAP
0400
0200
0100
0000
0F80
0000
07C0
1860
3030
6030
6030
C030
C030
C060
C060
C0C0
6180
3E00
ENDCHAR
STARTCHAR uni1E51
ENCODING 7761
SWIDTH 500 0
DWIDTH 8 0
BBX 7 14 -1 0
BITMAP
40
20
10
00
7C
00
3C
66
C6
C2
86
C6
CC
78
ENDCHAR
STARTCHAR uni1E52
ENCODING 7762
SWIDTH 778 0
DWIDTH 13 0
BBX 12 18 0 0
BITMAP
00C0
0180
0200
0000
0F80
0000
07C0
1860
3030
6030
6030
C030
C030
C060
C060
C0C0
6180
3E00
ENDCHAR
STARTCHAR uni1E53
ENCODING 7763
SWIDTH 500 0
DWIDTH 8 0
BBX 7 14 -1 0
BITMAP
06
0C
10
00
7C
00
3C
66
C6
C2
86
C6
CC
78
ENDCHAR
STARTCHAR uni1E54
ENCODING 7764
SWIDTH 667 0
DWIDTH 11 0
BBX 12 16 -1 0
BITMAP
00C0
0180
0200
0000
3FE0
0C70
0C30
0C30
1860
18E0
1F80
1800
3000
3000
3000
FC00
ENDCHAR
STARTCHAR uni1E55
ENCODING 7765
SWIDTH 574 0
DWIDTH 9 0
BBX 11 15 -4 -3
BITMAP
00C0
0180
0200
0000
1DC0
0E60
0C60
0C60
18E0
18C0
1980
3700
3000
6000
F000
ENDCHAR
STARTCHAR uni1E56
ENCODING 7766
SWIDTH 667 0
DWIDTH 11 0
BBX 12 15 -1 0
BITMAP
0300
0300
0000
3FE0
0C70
0C30
0C30
1860
18E0
1F80
1800
3000
3000
3000
FC00
ENDCHAR
STARTCHAR uni1E57
ENCODING 7767
SWIDTH 574 0
DWIDTH 9 0
BBX 11 14 -4 -3
BITMAP
0300
0300
0000
1DC0
0E60
0C60
0C60
18E0
18C0
1980
3700
3000
6000
F000
ENDCHAR
STARTCHAR uni1E58
ENCODING 7768
SWIDTH 741 0
DWIDTH 13 0
BBX 13 15 -1 0
BITMAP
0300
0300
0000
3FF0
0C38
0C18
0C18
1870
1FC0
18C0
1860
3060
30C8
30C8
FC70
ENDCHAR
STARTCHAR uni1E59
ENCODING 7769
SWIDTH 444 0
DWIDTH 7 0
BBX 7 11 -1 0
BITMAP
18
18
00
DC
66
6E
60
60
C0
C0
C0
ENDCHAR
STARTCHAR uni1E5A
ENCODING 7770
SWIDTH 741 0
DWIDTH 13 0
BBX 13 15 -1 -3
BITMAP
3FF0
0C38
0C18
0C18
1870
1FC0
18C0
1860
3060
30C8
30C8
FC70
0000
0600
0600
ENDCHAR
STARTCHAR uni1E5B
ENCODING 7771
SWIDTH 444 0
DWIDTH 7 0
BBX 7 11 -1 -3
BITMAP
DC
66
6E
60
60
C0
C0
C0
00
60
60
ENDCHAR
STARTCHAR uni1E5C
ENCODING 7772
SWIDTH 741 0
DWIDTH 13 0
BBX 13 17 -1 -3
BITMAP
07C0
0000
3FF0
0C38
0C18
0C18
1870
1FC0
18C0
1860
3060
30C8
30C8
FC70
0000
0600
0600
ENDCHAR
STARTCHAR uni1E5D
ENCODING 7773
SWIDTH 444 0
DWIDTH 7 0
BBX 7 13 -1 -3
BITMAP
7C
00
DC
66
6E
60
60
C0
C0
C0
00
60
60
ENDCHAR
STARTCHAR uni1E5E
ENCODING 7774
SWIDTH 741 0
DWIDTH 13 0
BBX 13 14 -1 -2
BITMAP
3FF0
0C38
0C18
0C18
1870
1FC0
18C0
1860
3060
30C8
30C8
FC70
0000
0F80
ENDCHAR
STARTCHAR uni1E5F
ENCODING 7775
SWIDTH 444 0
DWIDTH 7 0
BBX 8 10 -2 -2
BITMAP
6E
33
37
30
30
60
60
60
00
F8
ENDCHAR
STARTCHAR uni1E60
ENCODING 7776
SWIDTH 667 0
DWIDTH 11 0
BBX 11 15 -1 0
BITMAP
0600
0600
0000
0F20
18E0
3040
3040
3840
1F00
0780
41C0
40C0
40C0
E180
9E00
ENDCHAR
STARTCHAR uni1E61
ENCODING 7777
SWIDTH 444 0
DWIDTH 7 0
BBX 6 11 -1 0
BITMAP
30
30
00
38
6C
44
70
38
88
D8
70
ENDCHAR
STARTCHAR uni1E62
ENCODING 7778
SWIDTH 667 0
DWIDTH 11 0
BBX 11 15 -1 -3
BITMAP
0F20
18E0
3040
3040
3840
1F00
0780
41C0
40C0
40C0
E180
9E00
0000
0C00
0C00
ENDCHAR
STARTCHAR uni1E63
ENCODING 7779
SWIDTH 444 0
DWIDTH 7 0
BBX 6 11 -1 -3
BITMAP
38
6C
44
70
38
88
D8
70
00
30
30
ENDCHAR
STARTCHAR uni1E64
ENCODING 7780
SWIDTH 667 0
DWIDTH 11 0
BBX 11 19 -1 0
BITMAP
0300
0300
0000
0180
0300
0400
0000
0F20
18E0
3040
3040
3840
1F00
0780
41C0
40C0
40C0
E180
9E00
ENDCHAR
STARTCHAR uni1E65
ENCODING 7781
SWIDTH 444 0
DWIDTH 7 0
BBX 6 15 -1 0
BITMAP
18
18
00
0C
18
20
00
38
6C
44
70
38
88
D8
70
ENDCHAR
STARTCHAR uni1E66
ENCODING 7782
SWIDTH 667 0
DWIDTH 11 0
BBX 11 16 -1 0
BITMAP
0600
0600
0000
0880
0500
0200
0000
0F20
18C0
3040
3C00
1F80
43C0
40C0
E180
9E00
ENDCHAR
STARTCHAR uni1E67
ENCODING 7783
SWIDTH 444 0
DWIDTH 7 0
BBX 6 15 0 0
BITMAP
30
30
00
44
28
10
00
38
44
4C
60
18
C8
88
70
ENDCHAR
STARTCHAR uni1E68
ENCODING 7784
SWIDTH 667 0
DWIDTH 11 0
BBX 11 18 -1 -3
BITMAP
0600
0600
0000
0F20
18E0
3040
3040
3840
1F00
0780
41C0
40C0
40C0
E180
9E00
0000
0C00
0C00
ENDCHAR
STARTCHAR uni1E69
ENCODING 7785
SWIDTH 444 0
DWIDTH 7 0
BBX 6 14 -1 -3
BITMAP
30
30
00
38
6C
44
70
38
88
D8
70
00
30
30
ENDCHAR
STARTCHAR uni1E6A
ENCODING 7786
SWIDTH 685 0
DWIDTH 11 0
BBX 12 15 0 0
BITMAP
0600
0600
0000
7FF0
6670
C620
8620
8C20
0C00
0C00
0C00
1800
1800
1800
7E00
ENDCHAR
STARTCHAR uni1E6B
ENCODING 7787
SWIDTH 352 0
DWIDTH 6 0
BBX 6 14 -1 0
BITMAP
18
18
00
0C
18
18
7C
30
30
60
60
C8
D0
60
ENDCHAR
STARTCHAR uni1E6C
ENCODING 7788
SWIDTH 685 0
DWIDTH 11 0
BBX 12 15 0 -3
BITMAP
7FF0
6670
C620
8620
8C20
0C00
0C00
0C00
1800
1800
1800
7E00
0000
0C00
0C00
ENDCHAR
STARTCHAR uni1E6D
ENCODING 7789
SWIDTH 352 0
DWIDTH 6 0
BBX 6 14 -1 -3
BITMAP
0C
18
18
7C
30
30
60
60
C8
D0
60
00
60
60
ENDCHAR
STARTCHAR uni1E6E
ENCODING 7790
SWIDTH 685 0
DWIDTH 11 0
BBX 12 14 0 -2
BITMAP
7FF0
6670
C620
8620
8C20
0C00
0C00
0C00
1800
1800
1800
7E00
0000
3E00
ENDCHAR
STARTCHAR uni1E6F
ENCODING 7791
SWIDTH 352 0
DWIDTH 6 0
BBX 6 13 -1 -2
BITMAP
0C
18
18
7C
30
30
60
60
C8
D0
60
00
F8
ENDCHAR
STARTCHAR uni1E70
ENCODING 7792
SWIDTH 685 0
DWIDTH 11 0
BBX 12 16 0 -4
BITMAP
7FF0
6670
C620
8620
8C20
0C00
0C00
0C00
1800
1800
1800
7E00
0000
0800
1400
2200
ENDCHAR
STARTCHAR uni1E71
ENCODING 7793
SWIDTH 352 0
DWIDTH 6 0
BBX 6 15 -1 -4
BITMAP
0C
18
18
7C
30
30
60
60
C8
D0
60
00
20
50
88
ENDCHAR
STARTCHAR uni1E72
ENCODING 7794
SWIDTH 815 0
DWIDTH 13 0
BBX 13 15 1 -3
BITMAP
FCF8
3020
3020
3020
6040
6040
6040
C080
C080
C080
4100
3E00
0000
3600
3600
ENDCHAR
STARTCHAR uni1E73
ENCODING 7795
SWIDTH 611 0
DWIDTH 10 0
BBX 9 11 0 -3
BITMAP
E300
6300
6600
C600
CC00
CC80
9900
6E00
0000
3600
3600
ENDCHAR
STARTCHAR uni1E74
ENCODING 7796
SWIDTH 815 0
DWIDTH 13 0
BBX 13 15 1 -3
BITMAP
FCF8
3020
3020
3020
6040
6040
6040
C080
C080
C080
4100
3E00
0000
1900
2600
ENDCHAR
STARTCHAR uni1E75
ENCODING 7797
SWIDTH 611 0
DWIDTH 10 0
BBX 9 11 0 -3
BITMAP
E300
6300
6600
C600
CC00
CC80
9900
6E00
0000
3200
4C00
ENDCHAR
STARTCHAR uni1E76
ENCODING 7798
SWIDTH 815 0
DWIDTH 13 0
BBX 13 16 1 -4
BITMAP
FCF8
3020
3020
3020
6040
6040
6040
C080
C080
C080
4100
3E00
0000
0800
1400
2200
ENDCHAR
STARTCHAR uni1E77
ENCODING 7799
SWIDTH 611 0
DWIDTH 10 0
BBX 9 12 0 -4
BITMAP
E300
6300
6600
C600
CC00
CC80
9900
6E00
0000
0800
1400
2200
ENDCHAR
STARTCHAR uni1E78
ENCODING 7800
SWIDTH 815 0
DWIDTH 13 0
BBX 13 19 1 0
BITMAP
0180
0300
0400
0000
0C80
1300
0000
FCF8
3020
3020
3020
6040
6040
6040
C080
C080
C080
4100
3E00
ENDCHAR
STARTCHAR uni1E79
ENCODING 7801
SWIDTH 611 0
DWIDTH 10 0
BBX 9 15 0 0
BITMAP
0600
0C00
1000
0000
3200
4C00
0000
E300
6300
6600
C600
CC00
CC80
9900
6E00
ENDCHAR
STARTCHAR uni1E7A
ENCODING 7802
SWIDTH 815 0
DWIDTH 13 0
BBX 13 17 1 0
BITMAP
0D80
0D80
0000
0F80
0000
FCF8
3020
3020
3020
6040
6040
6040
C080
C080
C080
4100
3E00
ENDCHAR
STARTCHAR uni1E7B
ENCODING 7803
SWIDTH 611 0
DWIDTH 10 0
BBX 9 13 0 0
BITMAP
3600
3600
0000
3E00
0000
E300
6300
6600
C600
CC00
CC80
9900
6E00
ENDCHAR
STARTCHAR uni1E7C
ENCODING 7804
SWIDTH 704 0
DWIDTH 11 0
BBX 13 15 -1 0
BITMAP
0C80
1300
0000
FCF8
3020
3020
3040
1840
1880
1900
1900
0E00
0C00
0C00
0800
ENDCHAR
STARTCHAR uni1E7D
ENCODING 7805
SWIDTH 519 0
DWIDTH 8 0
BBX 7 11 -1 0
BITMAP
32
4C
00
F6
62
66
66
44
4C
68
30
ENDCHAR
STARTCHAR uni1E7E
ENCODING 7806
SWIDTH 704 0
DWIDTH 11 0
BBX 13 15 -1 -3
BITMAP
FCF8
3020
3020
3040
1840
1880
1900
1900
0E00
0C00
0C00
0800
0000
0600
0600
ENDCHAR
STARTCHAR uni1E7F
ENCODING 7807
SWIDTH 519 0
DWIDTH 8 0
BBX 7 11 -1 -3
BITMAP
F6
62
66
66
44
4C
68
30
00
30
30
ENDCHAR
STARTCHAR Wgrave
ENCODING 7808
SWIDTH 926 0
DWIDTH 15 0
BBX 17 16 0 0
BITMAP
020000
010000
008000
000000
FBEF80
318600
318400
318400
318800
1AC800
1AD000
1CD000
1CE000
18E000
084000
084000
ENDCHAR
STARTCHAR wgrave
ENCODING 7809
SWIDTH 778 0
DWIDTH 13 0
BBX 12 12 -1 0
BITMAP
0800
0400
0200
0000
F330
3310
6330
6630
6630
4620
6B40
3180
ENDCHAR
STARTCHAR Wacute
ENCODING 7810
SWIDTH 926 0
DWIDTH 15 0
BBX 17 16 0 0
BITMAP
006000
00C000
010000
000000
FBEF80
318600
318400
318400
318800
1AC800
1AD000
1CD000
1CE000
18E000
084000
084000
ENDCHAR
STARTCHAR wacute
ENCODING 7811
SWIDTH 778 0
DWIDTH 13 0
BBX 12 12 -1 0
BITMAP
0180
0300
0400
0000
F330
3310
6330
6630
6630
4620
6B40
3180
ENDCHAR
STARTCHAR Wdieresis
ENCODING 7812
SWIDTH 926 0
DWIDTH 15 0
BBX 17 15 0 0
BITMAP
036000
036000
000000
FBEF80
318600
318400
318400
318800
1AC800
1AD000
1CD000
1CE000
18E000
084000
084000
ENDCHAR
STARTCHAR wdieresis
ENCODING 7813
SWIDTH 778 0
DWIDTH 13 0
BBX 12 11 -1 0
BITMAP
0D80
0D80
0000
F330
3310
6330
6630
6630
4620
6B40
3180
ENDCHAR
STARTCHAR uni1E86
ENCODING 7814
SWIDTH 926 0
DWIDTH 15 0
BBX 17 15 0 0
BITMAP
018000
018000
000000
FBEF80
318600
318400
318400
318800
1AC800
1AD000
1CD000
1CE000
18E000
084000
084000
ENDCHAR
STARTCHAR uni1E87
ENCODING 7815
SWIDTH 778 0
DWIDTH 13 0
BBX 12 11 -1 0
BITMAP
0600
0600
0000
F330
3310
6330
6630
6630
4620
6B40
3180
ENDCHAR
STARTCHAR uni1E88
ENCODING 7816
SWIDTH 926 0
DWIDTH 15 0
BBX 17 15 0 -3
BITMAP
FBEF80
318600
318400
318400
318800
1AC800
1AD000
1CD000
1CE000
18E000
084000
084000
000000
018000
018000
ENDCHAR
STARTCHAR uni1E89
ENCODING 7817
SWIDTH 778 0
DWIDTH 13 0
BBX 12 11 -1 -3
BITMAP
F330
3310
6330
6630
6630
4620
6B40
3180
0000
0600
0600
ENDCHAR
STARTCHAR uni1E8A
ENCODING 7818
SWIDTH 704 0
DWIDTH 12 0
BBX 14 15 -1 0
BITMAP
0300
0300
0000
3F7C
0C30
0C20
0640
0680
0300
0300
0580
0980
10C0
30C0
FBF0
ENDCHAR
STARTCHAR uni1E8B
ENCODING 7819
SWIDTH 500 0
DWIDTH 8 0
BBX 9 11 -1 0
BITMAP
0C00
0C00
0000
3380
7680
5C00
0800
1C00
3400
E700
C600
ENDCHAR
STARTCHAR uni1E8C
ENCODING 7820
SWIDTH 704 0
DWIDTH 12 0
BBX 14 15 -1 0
BITMAP
06C0
06C0
0000
3F7C
0C30
0C20
0640
0680
0300
0300
0580
0980
10C0
30C0
FBF0
ENDCHAR
STARTCHAR uni1E8D
ENCODING 7821
SWIDTH 500 0
DWIDTH 8 0
BBX 9 11 -1 0
BITMAP
3600
3600
0000
3380
7680
5C00
0800
1C00
3400
E700
C600
ENDCHAR
STARTCHAR uni1E8E
ENCODING 7822
SWIDTH 685 0
DWIDTH 11 0
BBX 13 15 0 0
BITMAP
0600
0600
0000
F8F8
3060
3040
1880
1900
1A00
0C00
0C00
0C00
1800
1800
7E00
ENDCHAR
STARTCHAR uni1E8F
ENCODING 7823
SWIDTH 500 0
DWIDTH 8 0
BBX 10 14 -3 -3
BITMAP
0600
0600
0000
10C0
38C0
5980
0D80
0D00
0700
0600
0600
CC00
C800
7000
ENDCHAR
STARTCHAR uni1E90
ENCODING 7824
SWIDTH 667 0
DWIDTH 11 0
BBX 11 16 0 0
BITMAP
0400
0A00
1100
0000
3FE0
30C0
6180
4300
0300
0600
0C00
1800
1840
30C0
6180
FF80
ENDCHAR
STARTCHAR uni1E91
ENCODING 7825
SWIDTH 463 0
DWIDTH 8 0
BBX 8 12 -1 0
BITMAP
08
14
22
00
39
6E
0C
18
30
62
F6
9C
ENDCHAR
STARTCHAR uni1E92
ENCODING 7826
SWIDTH 667 0
DWIDTH 11 0
BBX 11 15 0 -3
BITMAP
3FE0
30C0
6180
4300
0300
0600
0C00
1800
1840
30C0
6180
FF80
0000
0C00
0C00
ENDCHAR
STARTCHAR uni1E93
ENCODING 7827
SWIDTH 463 0
DWIDTH 8 0
BBX 8 11 -1 -3
BITMAP
39
6E
0C
18
30
62
F6
9C
00
18
18
ENDCHAR
STARTCHAR uni1E94
ENCODING 7828
SWIDTH 667 0
DWIDTH 11 0
BBX 11 14 0 -2
BITMAP
3FE0
30C0
6180
4300
0300
0600
0C00
1800
1840
30C0
6180
FF80
0000
1F00
ENDCHAR
STARTCHAR uni1E95
ENCODING 7829
SWIDTH 463 0
DWIDTH 8 0
BBX 8 10 -1 -2
BITMAP
39
6E
0C
18
30
62
F6
9C
00
7C
ENDCHAR
STARTCHAR uni1E96
ENCODING 7830
SWIDTH 611 0
DWIDTH 10 0
BBX 9 14 0 -2
BITMAP
7000
3000
3000
6000
6C00
7600
6600
C600
CC00
CC80
8900
8600
0000
3E00
ENDCHAR
STARTCHAR uni1E97
ENCODING 7831
SWIDTH 352 0
DWIDTH 6 0
BBX 6 14 -1 0
BITMAP
6C
6C
00
0C
18
18
7C
30
30
60
60
C8
D0
60
ENDCHAR
STARTCHAR uni1E98
ENCODING 7832
SWIDTH 778 0
DWIDTH 13 0
BBX 12 13 -1 0
BITMAP
0600
0900
0900
0600
0000
F330
3310
6330
6630
6630
4620
6B40
3180
ENDCHAR
STARTCHAR uni1E99
ENCODING 7833
SWIDTH 500 0
DWIDTH 8 0
BBX 10 16 -3 -3
BITMAP
0600
0900
0900
0600
0000
10C0
38C0
5980
0D80
0D00
0700
0600
0600
CC00
C800
7000
ENDCHAR
STARTCHAR uni1EA0
ENCODING 7840
SWIDTH 704 0
DWIDTH 12 0
BBX 13 15 -2 -3
BITMAP
0080
0180
0180
02C0
04C0
04C0
08C0
0FC0
1060
2060
2060
F9F8
0000
0300
0300
ENDCHAR
STARTCHAR uni1EA1
ENCODING 7841
SWIDTH 574 0
DWIDTH 10 0
BBX 9 11 0 -3
BITMAP
1B00
2600
6600
C600
CC00
CC80
CD00
7600
0000
1800
1800
ENDCHAR
STARTCHAR uni1EA4
ENCODING 7844
SWIDTH 704 0
DWIDTH 12 0
BBX 13 20 -1 0
BITMAP
0060
00C0
0100
0000
0080
01C0
0220
0000
0080
0180
0180
02C0
04C0
04C0
08C0
0FC0
1060
2060
2060
F9F8
ENDCHAR
STARTCHAR uni1EA5
ENCODING 7845
SWIDTH 574 0
DWIDTH 10 0
BBX 8 16 0 0
BITMAP
06
0C
10
00
08
1C
22
00
3B
66
C6
C6
CC
CD
CD
76
ENDCHAR
STARTCHAR uni1EA6
ENCODING 7846
SWIDTH 704 0
DWIDTH 12 0
BBX 13 20 -1 0
BITMAP
0200
0100
0080
0000
0080
01C0
0220
0000
0080
0180
0180
02C0
04C0
04C0
08C0
0FC0
1060
2060
2060
F9F8
ENDCHAR
STARTCHAR uni1EA7
ENCODING 7847
SWIDTH 574 0
DWIDTH 10 0
BBX 8 16 0 0
BITMAP
20
10
08
00
08
1C
22
00
3B
66
C6
C6
CC
CD
CD
76
ENDCHAR
STARTCHAR uni1EAA
ENCODING 7850
SWIDTH 704 0
DWIDTH 12 0
BBX 13 19 -1 0
BITMAP
0320
04C0
0000
0080
01C0
0220
0000
0080
0180
0180
02C0
04C0
04C0
08C0
0FC0
1060
2060
2060
F9F8
ENDCHAR
STARTCHAR uni1EAB
ENCODING 7851
SWIDTH 574 0
DWIDTH 10 0
BBX 8 15 0 0
BITMAP
32
4C
00
08
1C
22
00
3B
66
C6
C6
CC
CD
CD
76
ENDCHAR
STARTCHAR uni1EAC
ENCODING 7852
SWIDTH 704 0
DWIDTH 12 0
BBX 13 19 -2 -3
BITMAP
0100
0280
0440
0000
0080
0180
0180
02C0
04C0
04C0
08C0
0FC0
1060
2060
2060
F9F8
0000
0300
0300
ENDCHAR
STARTCHAR uni1EAD
ENCODING 7853
SWIDTH 574 0
DWIDTH 10 0
BBX 9 15 0 -3
BITMAP
0800
1400
2200
0000
1B00
2600
6600
C600
CC00
CC80
CD00
7600
0000
1800
1800
ENDCHAR
STARTCHAR uni1EAE
ENCODING 7854
SWIDTH 704 0
DWIDTH 12 0
BBX 13 20 -2 0
BITMAP
00C0
0180
0200
0000
0440
0440
0380
0000
0080
0180
0180
02C0
04C0
04C0
08C0
0FC0
1060
2060
2060
F9F8
ENDCHAR
STARTCHAR uni1EAF
ENCODING 7855
SWIDTH 574 0
DWIDTH 10 0
BBX 9 16 0 0
BITMAP
0300
0600
0800
0000
2200
2200
1C00
0000
1B00
2600
6600
C600
CC00
CC80
CD00
7600
ENDCHAR
STARTCHAR uni1EB0
ENCODING 7856
SWIDTH 704 0
DWIDTH 12 0
BBX 13 20 -2 0
BITMAP
0400
0200
0100
0000
0440
0440
0380
0000
0080
0180
0180
02C0
04C0
04C0
08C0
0FC0
1060
2060
2060
F9F8
ENDCHAR
STARTCHAR uni1EB1
ENCODING 7857
SWIDTH 574 0
DWIDTH 10 0
BBX 9 16 0 0
BITMAP
2000
1000
0800
0000
2200
2200
1C00
0000
1B00
2600
6600
C600
CC00
CC80
CD00
7600
ENDCHAR
STARTCHAR uni1EB4
ENCODING 7860
SWIDTH 704 0
DWIDTH 12 0
BBX 13 19 -2 0
BITMAP
0640
0980
0000
0440
0440
0380
0000
0080
0180
0180
02C0
04C0
04C0
08C0
0FC0
1060
2060
2060
F9F8
ENDCHAR
STARTCHAR uni1EB5
ENCODING 7861
SWIDTH 574 0
DWIDTH 10 0
BBX 9 15 0 0
BITMAP
1900
2600
0000
2200
2200
1C00
0000
1B00
2600
6600
C600
CC00
CC80
CD00
7600
ENDCHAR
STARTCHAR uni1EB6
ENCODING 7862
SWIDTH 704 0
DWIDTH 12 0
BBX 13 19 -2 -3
BITMAP
0440
0440
0380
0000
0080
0180
0180
02C0
04C0
04C0
08C0
0FC0
1060
2060
2060
F9F8
0000
0300
0300
ENDCHAR
STARTCHAR uni1EB7
ENCODING 7863
SWIDTH 574 0
DWIDTH 10 0
BBX 9 15 0 -3
BITMAP
2200
2200
1C00
0000
1B00
2600
6600
C600
CC00
CC80
CD00
7600
0000
1800
1800
ENDCHAR
STARTCHAR uni1EB8
ENCODING 7864
SWIDTH 722 0
DWIDTH 12 0
BBX 13 15 -1 -3
BITMAP
3FF8
0C18
0C10
0C90
1980
1F80
1900
1900
3010
3030
3060
FFE0
0000
0600
0600
ENDCHAR
STARTCHAR uni1EB9
ENCODING 7865
SWIDTH 444 0
DWIDTH 7 0
BBX 6 11 0 -3
BITMAP
38
6C
CC
D8
F0
80
C8
70
00
60
60
ENDCHAR
STARTCHAR uni1EBC
ENCODING 7868
SWIDTH 722 0
DWIDTH 12 0
BBX 13 15 -1 0
BITMAP
0640
0980
0000
3FF8
0C18
0C10
0C90
1980
1F80
1900
1900
3010
3030
3060
FFE0
ENDCHAR
STARTCHAR uni1EBD
ENCODING 7869
SWIDTH 444 0
DWIDTH 7 0
BBX 6 11 0 0
BITMAP
64
98
00
38
6C
CC
D8
F0
80
C8
70
ENDCHAR
STARTCHAR uni1EBE
ENCODING 7870
SWIDTH 722 0
DWIDTH 12 0
BBX 13 20 -1 0
BITMAP
00C0
0180
0200
0000
0080
01C0
0220
0000
3FF8
0C18
0C10
0C90
1980
1F80
1900
1900
3010
3030
3060
FFE0
ENDCHAR
STARTCHAR uni1EBF
ENCODING 7871
SWIDTH 444 0
DWIDTH 7 0
BBX 6 16 0 0
BITMAP
0C
18
20
00
10
38
44
00
38
6C
CC
D8
F0
80
C8
70
ENDCHAR
STARTCHAR uni1EC0
ENCODING 7872
SWIDTH 722 0
DWIDTH 12 0
BBX 13 20 -1 0
BITMAP
0400
0200
0100
0000
0080
01C0
0220
0000
3FF8
0C18
0C10
0C90
1980
1F80
1900
1900
3010
3030
3060
FFE0
ENDCHAR
STARTCHAR uni1EC1
ENCODING 7873
SWIDTH 444 0
DWIDTH 7 0
BBX 6 16 0 0
BITMAP
40
20
10
00
10
38
44
00
38
6C
CC
D8
F0
80
C8
70
ENDCHAR
STARTCHAR uni1EC4
ENCODING 7876
SWIDTH 722 0
DWIDTH 12 0
BBX 13 19 -1 0
BITMAP
0320
04C0
0000
0080
01C0
0220
0000
3FF8
0C18
0C10
0C90
1980
1F80
1900
1900
3010
3030
3060
FFE0
ENDCHAR
STARTCHAR uni1EC5
ENCODING 7877
SWIDTH 444 0
DWIDTH 7 0
BBX 6 15 0 0
BITMAP
64
98
00
10
38
44
00
38
6C
CC
D8
F0
80
C8
70
ENDCHAR
STARTCHAR uni1EC6
ENCODING 7878
SWIDTH 722 0
DWIDTH 12 0
BBX 13 19 -1 -3
BITMAP
0100
0280
0440
0000
3FF8
0C18
0C10
0C90
1980
1F80
1900
1900
3010
3030
3060
FFE0
0000
0600
0600
ENDCHAR
STARTCHAR uni1EC7
ENCODING 7879
SWIDTH 444 0
DWIDTH 7 0
BBX 6 15 0 -3
BITMAP
10
28
44
00
38
6C
CC
D8
F0
80
C8
70
00
60
60
ENDCHAR
STARTCHAR uni1ECA
ENCODING 7882
SWIDTH 407 0
DWIDTH 7 0
BBX 8 15 -1 -3
BITMAP
3F
0C
0C
0C
18
18
18
18
30
30
30
FC
00
30
30
ENDCHAR
STARTCHAR uni1ECB
ENCODING 7883
SWIDTH 333 0
DWIDTH 6 0
BBX 5 15 0 -3
BITMAP
30
30
00
00
E0
60
60
C0
C0
C8
D0
60
00
60
60
ENDCHAR
STARTCHAR uni1ECC
ENCODING 7884
SWIDTH 778 0
DWIDTH 13 0
BBX 12 15 0 -3
BITMAP
07C0
1860
3030
6030
6030
C030
C030
C060
C060
C0C0
6180
3E00
0000
0C00
0C00
ENDCHAR
STARTCHAR uni1ECD
ENCODING 7885
SWIDTH 500 0
DWIDTH 8 0
BBX 7 11 -1 -3
BITMAP
3C
66
C6
C2
86
C6
CC
78
00
30
30
ENDCHAR
STARTCHAR uni1ED0
ENCODING 7888
SWIDTH 778 0
DWIDTH 13 0
BBX 12 20 0 0
BITMAP
00C0
0180
0200
0000
0100
0380
0440
0000
07C0
1860
3030
6030
6030
C030
C030
C060
C060
C0C0
6180
3E00
ENDCHAR
STARTCHAR uni1ED1
ENCODING 7889
SWIDTH 500 0
DWIDTH 8 0
BBX 7 16 -1 0
BITMAP
06
0C
10
00
08
1C
22
00
3C
66
C6
C2
86
C6
CC
78
ENDCHAR
STARTCHAR uni1ED2
ENCODING 7890
SWIDTH 778 0
DWIDTH 13 0
BBX 12 20 0 0
BITMAP
0400
0200
0100
0000
0100
0380
0440
0000
07C0
1860
3030
6030
6030
C030
C030
C060
C060
C0C0
6180
3E00
ENDCHAR
STARTCHAR uni1ED3
ENCODING 7891
SWIDTH 500 0
DWIDTH 8 0
BBX 7 16 -1 0
BITMAP
20
10
08
00
08
1C
22
00
3C
66
C6
C2
86
C6
CC
78
ENDCHAR
STARTCHAR uni1ED6
ENCODING 7894
SWIDTH 778 0
DWIDTH 13 0
BBX 12 19 0 0
BITMAP
0640
0980
0000
0100
0380
0440
0000
07C0
1860
3030
6030
6030
C030
C030
C060
C060
C0C0
6180
3E00
ENDCHAR
STARTCHAR uni1ED7
ENCODING 7895
SWIDTH 500 0
DWIDTH 8 0
BBX 7 15 -1 0
BITMAP
32
4C
00
08
1C
22
00
3C
66
C6
C2
86
C6
CC
78
ENDCHAR
STARTCHAR uni1ED8
ENCODING 7896
SWIDTH 778 0
DWIDTH 13 0
BBX 12 19 0 -3
BITMAP
0200
0500
0880
0000
07C0
1860
3030
6030
6030
C030
C030
C060
C060
C0C0
6180
3E00
0000
0C00
0C00
ENDCHAR
STARTCHAR uni1ED9
ENCODING 7897
SWIDTH 500 0
DWIDTH 8 0
BBX 7 15 -1 -3
BITMAP
10
28
44
00
3C
66
C6
C2
86
C6
CC
78
00
30
30
ENDCHAR
STARTCHAR uni1EDA
ENCODING 7898
SWIDTH 778 0
DWIDTH 13 0
BBX 14 16 0 0
BITMAP
0060
00C0
0100
0000
07CC
186C
3034
6038
6030
C030
C030
C060
C060
C0C0
6180
3E00
ENDCHAR
STARTCHAR uni1EDB
ENCODING 7899
SWIDTH 500 0
DWIDTH 8 0
BBX 10 12 -1 0
BITMAP
0300
0600
0800
0000
3CC0
66C0
C640
C280
8700
C600
CC00
7800
ENDCHAR
STARTCHAR uni1EDC
ENCODING 7900
SWIDTH 778 0
DWIDTH 13 0
BBX 14 16 0 0
BITMAP
0200
0100
0080
0000
07CC
186C
3034
6038
6030
C030
C030
C060
C060
C0C0
6180
3E00
ENDCHAR
STARTCHAR uni1EDD
ENCODING 7901
SWIDTH 500 0
DWIDTH 8 0
BBX 10 12 -1 0
BITMAP
1000
0800
0400
0000
3CC0
66C0
C640
C280
8700
C600
CC00
7800
ENDCHAR
STARTCHAR uni1EE0
ENCODING 7904
SWIDTH 778 0
DWIDTH 13 0
BBX 14 15 0 0
BITMAP
0320
04C0
0000
07CC
186C
3034
6038
6030
C030
C030
C060
C060
C0C0
6180
3E00
ENDCHAR
STARTCHAR uni1EE1
ENCODING 7905
SWIDTH 500 0
DWIDTH 8 0
BBX 10 11 -1 0
BITMAP
1900
2600
0000
3CC0
66C0
C640
C280
8700
C600
CC00
7800
ENDCHAR
STARTCHAR uni1EE2
ENCODING 7906
SWIDTH 778 0
DWIDTH 13 0
BBX 14 15 0 -3
BITMAP
07CC
186C
3034
6038
6030
C030
C030
C060
C060
C0C0
6180
3E00
0000
0600
0600
ENDCHAR
STARTCHAR uni1EE3
ENCODING 7907
SWIDTH 500 0
DWIDTH 8 0
BBX 10 11 -1 -3
BITMAP
3CC0
66C0
C640
C280
8700
C600
CC00
7800
0000
1800
1800
ENDCHAR
STARTCHAR uni1EE4
ENCODING 7908
SWIDTH 815 0
DWIDTH 13 0
BBX 13 15 1 -3
BITMAP
FCF8
3020
3020
3020
6040
6040
6040
C080
C080
C080
4100
3E00
0000
0C00
0C00
ENDCHAR
STARTCHAR uni1EE5
ENCODING 7909
SWIDTH 611 0
DWIDTH 10 0
BBX 9 11 0 -3
BITMAP
E300
6300
6600
C600
CC00
CC80
9900
6E00
0000
1800
1800
ENDCHAR
STARTCHAR uni1EE8
ENCODING 7912
SWIDTH 815 0
DWIDTH 13 0
BBX 15 16 1 0
BITMAP
0060
00C0
0100
0000
FCFE
3026
3022
3024
6048
6040
6040
C080
C080
C080
4100
3E00
ENDCHAR
STARTCHAR uni1EE9
ENCODING 7913
SWIDTH 611 0
DWIDTH 10 0
BBX 11 12 0 0
BITMAP
0180
0300
0400
0000
E360
6360
6620
C640
CC80
CC80
9900
6E00
ENDCHAR
STARTCHAR uni1EEA
ENCODING 7914
SWIDTH 815 0
DWIDTH 13 0
BBX 15 16 1 0
BITMAP
0200
0100
0080
0000
FCFE
3026
3022
3024
6048
6040
6040
C080
C080
C080
4100
3E00
ENDCHAR
STARTCHAR uni1EEB
ENCODING 7915
SWIDTH 611 0
DWIDTH 10 0
BBX 11 12 0 0
BITMAP
1000
0800
0400
0000
E360
6360
6620
C640
CC80
CC80
9900
6E00
ENDCHAR
STARTCHAR uni1EEE
ENCODING 7918
SWIDTH 815 0
DWIDTH 13 0
BBX 15 15 1 0
BITMAP
0320
04C0
0000
FCFE
3026
3022
3024
6048
6040
6040
C080
C080
C080
4100
3E00
ENDCHAR
STARTCHAR uni1EEF
ENCODING 7919
SWIDTH 611 0
DWIDTH 10 0
BBX 11 11 0 0
BITMAP
0C80
1300
0000
E360
6360
6620
C640
CC80
CC80
9900
6E00
ENDCHAR
STARTCHAR uni1EF0
ENCODING 7920
SWIDTH 815 0
DWIDTH 13 0
BBX 15 15 1 -3
BITMAP
FCFE
3026
3022
3024
6048
6040
6040
C080
C080
C080
4100
3E00
0000
0C00
0C00
ENDCHAR
STARTCHAR uni1EF1
ENCODING 7921
SWIDTH 611 0
DWIDTH 10 0
BBX 11 11 0 -3
BITMAP
E360
6360
6620
C640
CC80
CC80
9900
6E00
0000
0C00
0C00
ENDCHAR
STARTCHAR Ygrave
ENCODING 7922
SWIDTH 685 0
DWIDTH 11 0
BBX 13 16 0 0
BITMAP
0800
0400
0200
0000
F8F8
3060
3040
1880
1900
1A00
0C00
0C00
0C00
1800
1800
7E00
ENDCHAR
STARTCHAR ygrave
ENCODING 7923
SWIDTH 500 0
DWIDTH 8 0
BBX 10 15 -3 -3
BITMAP
1000
0800
0400
0000
10C0
38C0
5980
0D80
0D00
0700
0600
0600
CC00
C800
7000
ENDCHAR
STARTCHAR uni1EF4
ENCODING 7924
SWIDTH 685 0
DWIDTH 11 0
BBX 13 15 0 -3
BITMAP
F8F8
3060
3040
1880
1900
1A00
0C00
0C00
0C00
1800
1800
7E00
0000
0C00
0C00
ENDCHAR
STARTCHAR uni1EF5
ENCODING 7925
SWIDTH 500 0
DWIDTH 8 0
BBX 10 14 -3 -6
BITMAP
10C0
38C0
5980
0D80
0D00
0700
0600
0600
CC00
C800
7000
0000
3000
3000
ENDCHAR
STARTCHAR uni1EF8
ENCODING 7928
SWIDTH 685 0
DWIDTH 11 0
BBX 13 15 0 0
BITMAP
0C80
1300
0000
F8F8
3060
3040
1880
1900
1A00
0C00
0C00
0C00
1800
1800
7E00
ENDCHAR
STARTCHAR uni1EF9
ENCODING 7929
SWIDTH 500 0
DWIDTH 8 0
BBX 10 14 -3 -3
BITMAP
0C80
1300
0000
10C0
38C0
5980
0D80
0D00
0700
0600
0600
CC00
C800
7000
ENDCHAR
STARTCHAR uni2000
ENCODING 8192
SWIDTH 500 0
DWIDTH 8 0
BBX 1 1 0 0
BITMAP
00
ENDCHAR
STARTCHAR uni2001
ENCODING 8193
SWIDTH 1000 0
DWIDTH 17 0
BBX 1 1 0 0
BITMAP
00
ENDCHAR
STARTCHAR uni2002
ENCODING 8194
SWIDTH 500 0
DWIDTH 8 0
BBX 1 1 0 0
BITMAP
00
ENDCHAR
STARTCHAR uni2003
ENCODING 8195
SWIDTH 1000 0
DWIDTH 17 0
BBX 1 1 0 0
BITMAP
00
ENDCHAR
STARTCHAR uni2004
ENCODING 8196
SWIDTH 333 0
DWIDTH 6 0
BBX 1 1 0 0
BITMAP
00
ENDCHAR
STARTCHAR uni2005
ENCODING 8197
SWIDTH 250 0
DWIDTH 4 0
BBX 1 1 0 0
BITMAP
00
ENDCHAR
STARTCHAR uni2006
ENCODING 8198
SWIDTH 167 0
DWIDTH 3 0
BBX 1 1 0 0
BITMAP
00
ENDCHAR
STARTCHAR uni2007
ENCODING 8199
SWIDTH 556 0
DWIDTH 9 0
BBX 1 1 0 0
BITMAP
00
ENDCHAR
STARTCHAR uni2008
ENCODING 8200
SWIDTH 278 0
DWIDTH 4 0
BBX 1 1 0 0
BITMAP
00
ENDCHAR
STARTCHAR uni2009
ENCODING 8201
SWIDTH 200 0
DWIDTH 3 0
BBX 1 1 0 0
BITMAP
00
ENDCHAR
STARTCHAR uni200A
ENCODING 8202
SWIDTH 100 0
DWIDTH 2 0
BBX 1 1 0 0
BITMAP
00
ENDCHAR
STARTCHAR uni200B
ENCODING 8203
SWIDTH 0 0
DWIDTH 0 0
BBX 1 1 0 0
BITMAP
00
ENDCHAR
STARTCHAR uni2010
ENCODING 8208
SWIDTH 333 0
DWIDTH 5 0
BBX 3 1 1 3
BITMAP
E0
ENDCHAR
STARTCHAR uni2011
ENCODING 8209
SWIDTH 333 0
DWIDTH 5 0
BBX 3 1 1 3
BITMAP
E0
ENDCHAR
STARTCHAR figuredash
ENCODING 8210
SWIDTH 500 0
DWIDTH 8 0
BBX 8 1 0 3
BITMAP
FF
ENDCHAR
STARTCHAR endash
ENCODING 8211
SWIDTH 500 0
DWIDTH 8 0
BBX 8 1 0 3
BITMAP
FF
ENDCHAR
STARTCHAR emdash
ENCODING 8212
SWIDTH 1000 0
DWIDTH 16 0
BBX 16 1 0 3
BITMAP
FFFF
ENDCHAR
STARTCHAR afii00208
ENCODING 8213
SWIDTH 1000 0
DWIDTH 16 0
BBX 16 1 0 3
BITMAP
FFFF
ENDCHAR
STARTCHAR quoteleft
ENCODING 8216
SWIDTH 204 0
DWIDTH 3 0
BBX 3 5 0 7
BITMAP
20
40
80
C0
C0
ENDCHAR
STARTCHAR quoteright
ENCODING 8217
SWIDTH 204 0
DWIDTH 3 0
BBX 3 5 0 7
BITMAP
60
60
20
40
80
ENDCHAR
STARTCHAR quotesinglbase
ENCODING 8218
SWIDTH 204 0
DWIDTH 3 0
BBX 3 5 -1 -3
BITMAP
60
60
20
40
80
ENDCHAR
STARTCHAR quotereversed
ENCODING 8219
SWIDTH 204 0
DWIDTH 3 0
BBX 3 5 0 7
BITMAP
C0
C0
80
40
20
ENDCHAR
STARTCHAR quotedblleft
ENCODING 8220
SWIDTH 389 0
DWIDTH 6 0
BBX 6 5 0 8
BITMAP
24
48
90
D8
D8
ENDCHAR
STARTCHAR quotedblright
ENCODING 8221
SWIDTH 389 0
DWIDTH 6 0
BBX 6 5 0 8
BITMAP
6C
6C
24
48
90
ENDCHAR
STARTCHAR quotedblbase
ENCODING 8222
SWIDTH 389 0
DWIDTH 6 0
BBX 6 5 -1 -3
BITMAP
6C
6C
24
48
90
ENDCHAR
STARTCHAR uni201F
ENCODING 8223
SWIDTH 389 0
DWIDTH 6 0
BBX 6 5 0 8
BITMAP
D8
D8
90
48
24
ENDCHAR
STARTCHAR dagger
ENCODING 8224
SWIDTH 500 0
DWIDTH 9 0
BBX 8 15 0 -3
BITMAP
0C
0C
08
49
FF
92
10
30
30
20
20
60
40
40
40
ENDCHAR
STARTCHAR daggerdbl
ENCODING 8225
SWIDTH 500 0
DWIDTH 9 0
BBX 9 15 -1 -3
BITMAP
0600
0600
0400
2480
7F80
4900
0800
1C00
0800
4900
FF00
9200
1000
3000
3000
ENDCHAR
STARTCHAR bullet
ENCODING 8226
SWIDTH 606 0
DWIDTH 10 0
BBX 5 5 1 3
BITMAP
70
F8
F8
F8
70
ENDCHAR
STARTCHAR ellipsis
ENCODING 8230
SWIDTH 1000 0
DWIDTH 15 0
BBX 12 2 1 0
BITMAP
C630
C630
ENDCHAR
STARTCHAR perthousand
ENCODING 8240
SWIDTH 1000 0
DWIDTH 17 0
BBX 18 12 0 0
BITMAP
388000
678000
450000
C90000
8A0000
92E380
659640
051440
0B2C80
0A2880
124900
118600
ENDCHAR
STARTCHAR guilsinglleft
ENCODING 8249
SWIDTH 333 0
DWIDTH 6 0
BBX 3 5 1 1
BITMAP
20
40
80
40
40
ENDCHAR
STARTCHAR guilsinglright
ENCODING 8250
SWIDTH 333 0
DWIDTH 6 0
BBX 3 5 1 1
BITMAP
40
40
20
40
80
ENDCHAR
STARTCHAR fraction
ENCODING 8260
SWIDTH 167 0
DWIDTH 3 0
BBX 8 12 -2 0
BITMAP
01
02
02
04
08
08
10
10
20
40
40
80
ENDCHAR
STARTCHAR oneinferior
ENCODING 8321
SWIDTH 333 0
DWIDTH 6 0
BBX 5 7 0 -3
BITMAP
10
70
10
30
20
20
F8
ENDCHAR
STARTCHAR twoinferior
ENCODING 8322
SWIDTH 333 0
DWIDTH 6 0
BBX 6 7 0 -3
BITMAP
38
6C
64
08
30
64
F8
ENDCHAR
STARTCHAR threeinferior
ENCODING 8323
SWIDTH 333 0
DWIDTH 6 0
BBX 6 7 0 -3
BITMAP
38
2C
04
18
C8
98
70
ENDCHAR
STARTCHAR uni20A5
ENCODING 8357
SWIDTH 889 0
DWIDTH 15 0
BBX 12 14 1 -3
BITMAP
0080
0080
0100
EDC0
3760
6660
6660
CCC0
CCC0
8890
9860
0800
1000
1000
ENDCHAR
STARTCHAR uni20A6
ENCODING 8358
SWIDTH 815 0
DWIDTH 13 0
BBX 15 12 -1 0
BITMAP
3C3E
0E08
0E08
0B08
0FF0
1190
1190
1FF0
20E0
2060
2060
F820
ENDCHAR
STARTCHAR uni20A9
ENCODING 8361
SWIDTH 926 0
DWIDTH 15 0
BBX 17 12 0 0
BITMAP
FBEF80
318600
318400
318400
37F800
1AC800
1AD000
1FF800
1CE000
18E000
084000
084000
ENDCHAR
STARTCHAR Euro
ENCODING 8364
SWIDTH 722 0
DWIDTH 12 0
BBX 13 12 -2 0
BITMAP
01E8
0638
0C10
1810
FF10
3000
3000
FF00
3010
3020
1860
0F80
ENDCHAR
STARTCHAR uni20AD
ENCODING 8365
SWIDTH 741 0
DWIDTH 12 0
BBX 15 12 -1 0
BITMAP
3FBE
0C18
0C20
0C40
1880
FFFE
1D80
1980
30C0
30C0
3060
FDF8
ENDCHAR
STARTCHAR uni2103
ENCODING 8451
SWIDTH 1102 0
DWIDTH 19 0
BBX 17 12 1 0
BITMAP
701E80
886380
88C100
898100
718100
030000
030000
030000
030100
030200
018600
00F800
ENDCHAR
STARTCHAR uni2109
ENCODING 8457
SWIDTH 1047 0
DWIDTH 18 0
BBX 18 12 1 0
BITMAP
71FFC0
8860C0
886080
886480
70CC00
00FC00
00C800
00C800
018000
018000
018000
07E000
ENDCHAR
STARTCHAR trademark
ENCODING 8482
SWIDTH 950 0
DWIDTH 16 0
BBX 16 7 0 5
BITMAP
FFC7
92C6
10EA
10AA
10BA
1092
39D7
ENDCHAR
STARTCHAR uni212A
ENCODING 8490
SWIDTH 741 0
DWIDTH 12 0
BBX 15 12 -1 0
BITMAP
3FBE
0C18
0C20
0C40
1880
1B80
1D80
1980
30C0
30C0
3060
FDF8
ENDCHAR
STARTCHAR uni212B
ENCODING 8491
SWIDTH 704 0
DWIDTH 12 0
BBX 13 16 -1 0
BITMAP
00C0
0120
00C0
0000
0080
0180
0180
02C0
04C0
04C0
08C0
0FC0
1060
2060
2060
F9F8
ENDCHAR
STARTCHAR uni2132
ENCODING 8498
SWIDTH 667 0
DWIDTH 11 0
BBX 13 12 -1 0
BITMAP
01F8
0060
0060
0060
04C0
04C0
0FC0
0CC0
4980
4180
C180
FFE0
ENDCHAR
STARTCHAR minus
ENCODING 8722
SWIDTH 606 0
DWIDTH 10 0
BBX 8 1 1 4
BITMAP
FF
ENDCHAR
STARTCHAR fraction
ENCODING 8725
SWIDTH 167 0
DWIDTH 3 0
BBX 8 12 -2 0
BITMAP
01
02
02
04
08
08
10
10
20
40
40
80
ENDCHAR
STARTCHAR periodcentered
ENCODING 8729
SWIDTH 278 0
DWIDTH 5 0
BBX 2 2 1 3
BITMAP
C0
C0
ENDCHAR
STARTCHAR uni2236
ENCODING 8758
SWIDTH 278 0
DWIDTH 5 0
BBX 4 8 0 0
BITMAP
30
30
00
00
00
00
C0
C0
ENDCHAR
STARTCHAR uni2259
ENCODING 8793
SWIDTH 606 0
DWIDTH 10 0
BBX 8 8 1 2
BITMAP
08
14
22
00
FF
00
00
FF
ENDCHAR
STARTCHAR uni225A
ENCODING 8794
SWIDTH 606 0
DWIDTH 10 0
BBX 8 8 1 2
BITMAP
22
14
08
00
FF
00
00
FF
ENDCHAR
STARTCHAR notequal
ENCODING 8800
SWIDTH 606 0
DWIDTH 10 0
BBX 8 14 1 -3
BITMAP
02
02
04
04
04
FF
08
10
FF
20
20
20
40
40
ENDCHAR
STARTCHAR equivalence
ENCODING 8801
SWIDTH 606 0
DWIDTH 10 0
BBX 8 5 0 2
BITMAP
FF
00
FF
00
FF
ENDCHAR
STARTCHAR uni2262
ENCODING 8802
SWIDTH 606 0
DWIDTH 10 0
BBX 8 14 0 -2
BITMAP
02
02
04
04
04
FF
08
FF
10
FF
20
20
40
40
ENDCHAR
STARTCHAR lessequal
ENCODING 8804
SWIDTH 606 0
DWIDTH 10 0
BBX 9 11 0 -2
BITMAP
0180
0600
1800
6000
8000
6000
1800
0600
0180
0000
FF80
ENDCHAR
STARTCHAR greaterequal
ENCODING 8805
SWIDTH 606 0
DWIDTH 10 0
BBX 9 11 0 -2
BITMAP
C000
3000
0C00
0300
0080
0300
0C00
3000
C000
0000
FF80
ENDCHAR
STARTCHAR uni226E
ENCODING 8814
SWIDTH 606 0
DWIDTH 10 0
BBX 9 14 0 -2
BITMAP
0100
0100
0200
0380
0600
1C00
6400
8800
6800
1800
1600
1180
2000
2000
ENDCHAR
STARTCHAR uni226F
ENCODING 8815
SWIDTH 606 0
DWIDTH 10 0
BBX 9 14 0 -2
BITMAP
0100
0100
0200
C200
3200
0C00
0700
0880
0B00
1C00
3000
D000
2000
2000
ENDCHAR
STARTCHAR uni2270
ENCODING 8816
SWIDTH 606 0
DWIDTH 10 0
BBX 9 14 0 -3
BITMAP
0100
0100
0380
0600
1A00
6400
8400
6800
1800
1600
1180
1000
FF80
2000
ENDCHAR
STARTCHAR uni2271
ENCODING 8817
SWIDTH 606 0
DWIDTH 10 0
BBX 9 14 0 -3
BITMAP
0100
0100
C200
3200
0E00
0700
0480
0B00
0C00
3000
D000
1000
FF80
2000
ENDCHAR
STARTCHAR fi
ENCODING -1
SWIDTH 611 0
DWIDTH 10 0
BBX 10 15 -1 -3
BITMAP
0300
0480
0980
0800
7F80
1900
1100
1300
3200
2640
2480
6300
4000
4000
C000
ENDCHAR
STARTCHAR fl
ENCODING -1
SWIDTH 611 0
DWIDTH 10 0
BBX 11 15 -1 -3
BITMAP
03A0
04C0
0840
08C0
7F80
1900
1100
1300
3200
2640
2480
6300
4000
4000
C000
ENDCHAR
ENDFONT
